<svg width="39" height="34" viewBox="0 0 39 34" fill="none" xmlns="http://www.w3.org/2000/svg">
<path fill-rule="evenodd" clip-rule="evenodd" d="M27.2895 6.93328C24.9731 4.68065 21.9488 3.29431 18.7261 3.01182C15.4382 2.72363 12.1539 3.6028 9.4497 5.495C6.74548 7.38719 4.79421 10.1715 3.93842 13.3591C3.08263 16.5467 3.37702 19.9339 4.76991 22.926C6.1628 25.9182 8.56517 28.3241 11.5553 29.7214C14.5454 31.1187 17.9321 31.418 21.121 30.5669C24.3099 29.7158 27.097 27.7686 28.9932 25.0672C30.2656 23.2544 31.0823 21.1796 31.3962 19.0171L29.7963 20.1695C29.1614 20.6267 28.276 20.4828 27.8188 19.8479C27.3615 19.213 27.5055 18.3277 28.1403 17.8704L33.7828 13.8064L37.8468 19.4488C38.304 20.0837 38.1601 20.9691 37.5252 21.4263C36.8903 21.8836 36.005 21.7396 35.5477 21.1047L34.3281 19.4115C33.9513 22.0406 32.9609 24.5634 31.4144 26.7667C29.1188 30.0373 25.7445 32.3946 21.8838 33.425C18.0232 34.4554 13.9229 34.093 10.3029 32.4014C6.68288 30.7097 3.77442 27.797 2.08809 24.1745C0.401763 20.5519 0.0453546 16.4512 1.08143 12.592C2.11751 8.73292 4.47985 5.36208 7.75376 3.07126C11.0277 0.780435 15.0039 -0.283948 18.9844 0.0649578C22.0138 0.33049 24.8982 1.40166 27.3492 3.14384C28.0526 3.64384 28.7204 4.19911 29.3455 4.80646C29.6949 5.07867 29.9196 5.50338 29.9196 5.98057C29.9196 6.80214 29.2536 7.46815 28.432 7.46815C27.9729 7.46815 27.5623 7.26017 27.2895 6.93328ZM25.3608 17.3339C25.3608 20.856 23.7432 22.8962 21.0717 22.8962C18.3949 22.891 16.7721 20.8456 16.7825 17.3339C16.7878 13.8327 18.4053 11.8343 21.0717 11.8343C23.738 11.8343 25.366 13.8432 25.3608 17.3339ZM21.0717 13.6605C19.8402 13.6605 19.0471 14.892 19.0419 17.3339C19.0367 19.8072 19.835 21.0491 21.0717 21.0491C22.3083 21.0491 23.1014 19.8072 23.1014 17.3339C23.0962 14.892 22.3031 13.6605 21.0717 13.6605ZM12.3499 11.9804H14.4423V22.6667H12.2195V14.0936H12.1568L9.70442 15.6329V13.6605L12.3499 11.9804Z" fill="white"/>
</svg>
