<svg width="14" height="15" viewBox="0 0 14 15" fill="none" xmlns="http://www.w3.org/2000/svg">
<path d="M3.19786 5.53377C2.8023 5.14835 2.16919 5.15657 1.78377 5.55214C1.39835 5.9477 1.40657 6.58081 1.80214 6.96623L3.19786 5.53377ZM7.11842 10.75L6.42056 11.4662C6.61056 11.6514 6.86633 11.7534 7.13158 11.7499C7.39683 11.7464 7.64983 11.6377 7.83489 11.4476L7.11842 10.75ZM12.2165 6.94762C12.6018 6.55192 12.5933 5.91881 12.1976 5.53353C11.8019 5.14825 11.1688 5.15669 10.7835 5.55238L12.2165 6.94762ZM1.80214 6.96623L6.42056 11.4662L7.81629 10.0338L3.19786 5.53377L1.80214 6.96623ZM7.83489 11.4476L12.2165 6.94762L10.7835 5.55238L6.40195 10.0524L7.83489 11.4476Z" fill="#969696"/>
</svg>
