<svg width="12" height="24" viewBox="0 0 12 24" fill="none" xmlns="http://www.w3.org/2000/svg">
<path d="M4.20174 2.17055C3.92773 1.69103 3.31687 1.52443 2.83736 1.79844C2.35784 2.07245 2.19124 2.68331 2.46525 3.16283L4.20174 2.17055ZM8.66683 12L9.53507 12.4962C9.71075 12.1887 9.71075 11.8113 9.53507 11.5039L8.66683 12ZM2.46525 20.8372C2.19124 21.3167 2.35784 21.9276 2.83736 22.2016C3.31687 22.4756 3.92773 22.309 4.20174 21.8295L2.46525 20.8372ZM2.46525 3.16283L7.79859 12.4962L9.53507 11.5039L4.20174 2.17055L2.46525 3.16283ZM7.79859 11.5039L2.46525 20.8372L4.20174 21.8295L9.53507 12.4962L7.79859 11.5039Z" fill="white"/>
</svg>
