<svg width="16" height="16" viewBox="0 0 16 16" fill="none" xmlns="http://www.w3.org/2000/svg">
<path d="M0.5 4.65C0.5 4.42909 0.679086 4.25 0.9 4.25H15.1C15.3209 4.25 15.5 4.42909 15.5 4.65V13.5C15.5 14.6046 14.6046 15.5 13.5 15.5H2.5C1.39543 15.5 0.5 14.6046 0.5 13.5V4.65Z" fill="#4579FF"/>
<path d="M0.5 2.88095C0.5 1.56599 1.56599 0.5 2.88095 0.5H13.119C14.434 0.5 15.5 1.56599 15.5 2.88095C15.5 3.04532 15.3668 3.17857 15.2024 3.17857H0.797619C0.633248 3.17857 0.5 3.04532 0.5 2.88095Z" fill="#4579FF"/>
<ellipse cx="5.32143" cy="8.00014" rx="1.07143" ry="1.07143" fill="white"/>
<ellipse cx="5.32143" cy="11.7501" rx="1.07143" ry="1.07143" fill="white"/>
<ellipse cx="10.6789" cy="8.00014" rx="1.07143" ry="1.07143" fill="white"/>
<ellipse cx="10.6789" cy="11.7501" rx="1.07143" ry="1.07143" fill="white"/>
</svg>
