<svg width="18" height="16" viewBox="0 0 18 16" fill="none" xmlns="http://www.w3.org/2000/svg">
<path d="M2.58654 3.72811C2.19097 3.34269 1.55786 3.35091 1.17244 3.74647C0.787022 4.14203 0.795244 4.77515 1.19081 5.16057L2.58654 3.72811ZM9.18692 11.5554L8.48905 12.2717C8.67905 12.4568 8.93482 12.5589 9.20008 12.5554C9.46533 12.5519 9.71833 12.4431 9.90339 12.2531L9.18692 11.5554ZM16.8274 5.14195C17.2126 4.74626 17.2042 4.11315 16.8085 3.72786C16.4128 3.34258 15.7797 3.35102 15.3944 3.74672L16.8274 5.14195ZM1.19081 5.16057L8.48905 12.2717L9.88478 10.8392L2.58654 3.72811L1.19081 5.16057ZM9.90339 12.2531L16.8274 5.14195L15.3944 3.74672L8.47045 10.8578L9.90339 12.2531Z" fill="#AEAEAE"/>
</svg>
