<svg width="18" height="10" viewBox="0 0 18 10" fill="none" xmlns="http://www.w3.org/2000/svg">
<path d="M17.4845 1.81822C17.875 1.4277 17.875 0.794532 17.4845 0.404008C17.0939 0.0134834 16.4608 0.0134834 16.0702 0.404008L17.4845 1.81822ZM8.99956 8.88889L8.29246 9.596C8.68298 9.98652 9.31615 9.98652 9.70667 9.596L8.99956 8.88889ZM1.92889 0.404007C1.53837 0.0134827 0.905204 0.0134827 0.514679 0.404007C0.124155 0.794531 0.124155 1.4277 0.514681 1.81822L1.92889 0.404007ZM16.0702 0.404008L8.29246 8.18178L9.70667 9.596L17.4845 1.81822L16.0702 0.404008ZM9.70667 8.18178L1.92889 0.404007L0.514681 1.81822L8.29246 9.596L9.70667 8.18178Z" fill="#AEAEAE"/>
</svg>
