<svg width="32" height="32" viewBox="0 0 32 32" fill="none" xmlns="http://www.w3.org/2000/svg">
<path d="M16.0002 10.7929C13.133 10.7929 10.7932 13.1328 10.7932 15.9999C10.7932 18.8671 13.133 21.207 16.0002 21.207C18.8674 21.207 21.2072 18.8671 21.2072 15.9999C21.2072 13.1328 18.8674 10.7929 16.0002 10.7929ZM31.6174 15.9999C31.6174 13.8437 31.6369 11.707 31.5158 9.55463C31.3947 7.05463 30.8244 4.83588 28.9963 3.00775C27.1642 1.17572 24.9494 0.609316 22.4494 0.488222C20.2932 0.367129 18.1564 0.38666 16.0041 0.38666C13.8478 0.38666 11.7111 0.367129 9.55878 0.488222C7.05878 0.609316 4.84003 1.17963 3.0119 3.00775C1.17987 4.83979 0.613467 7.05463 0.492373 9.55463C0.371279 11.7109 0.39081 13.8476 0.39081 15.9999C0.39081 18.1523 0.371279 20.2929 0.492373 22.4453C0.613467 24.9453 1.18378 27.164 3.0119 28.9921C4.84394 30.8242 7.05878 31.3906 9.55878 31.5117C11.715 31.6328 13.8517 31.6132 16.0041 31.6132C18.1603 31.6132 20.2971 31.6328 22.4494 31.5117C24.9494 31.3906 27.1682 30.8203 28.9963 28.9921C30.8283 27.1601 31.3947 24.9453 31.5158 22.4453C31.6408 20.2929 31.6174 18.1562 31.6174 15.9999ZM16.0002 24.0117C11.5666 24.0117 7.98847 20.4335 7.98847 15.9999C7.98847 11.5663 11.5666 7.98822 16.0002 7.98822C20.4338 7.98822 24.0119 11.5663 24.0119 15.9999C24.0119 20.4335 20.4338 24.0117 16.0002 24.0117ZM24.34 9.53119C23.3049 9.53119 22.4689 8.69525 22.4689 7.6601C22.4689 6.62494 23.3049 5.789 24.34 5.789C25.3752 5.789 26.2111 6.62494 26.2111 7.6601C26.2114 7.9059 26.1632 8.14935 26.0693 8.3765C25.9754 8.60365 25.8376 8.81004 25.6638 8.98385C25.49 9.15766 25.2836 9.29547 25.0564 9.38939C24.8293 9.48331 24.5858 9.5315 24.34 9.53119Z" fill="#868686"/>
</svg>
