<svg width="22" height="20" viewBox="0 0 22 20" fill="none" xmlns="http://www.w3.org/2000/svg">
<path d="M10.4952 5.42563C10.5267 5.67575 10.7395 5.8633 10.9916 5.86315C11.2437 5.863 11.4563 5.6752 11.4875 5.42504C11.5771 4.70698 11.8384 4.01749 12.2522 3.41082C12.6631 2.80827 13.2138 2.30336 13.8624 1.93643C14.6485 1.56092 15.5355 1.42272 16.4063 1.54133C17.4258 1.71283 18.3524 2.20931 19.0386 2.94693C19.9498 3.9369 20.4639 5.20316 20.4938 6.51943L20.4937 6.51944L20.4942 6.52961C20.5915 8.78426 19.4569 10.903 17.9372 12.7367C16.4433 14.5393 14.634 15.9992 13.4305 16.9703L13.3826 17.009C13.3823 17.0092 13.3819 17.0095 13.3816 17.0097C12.7216 17.5362 12.1132 17.9733 11.5979 18.3209C11.4206 18.4369 11.2092 18.5 10.9913 18.5C10.7725 18.5 10.5603 18.4363 10.3825 18.3194L10.3818 18.319C9.86438 17.98 9.24439 17.552 8.57323 17.0348C8.57296 17.0346 8.5727 17.0344 8.57244 17.0342L8.54418 17.0122C7.4805 16.1865 5.6574 14.7711 4.1258 12.9516C2.57399 11.1081 1.38262 8.92146 1.50926 6.57553C1.50961 6.56896 1.50984 6.56238 1.50993 6.5558C1.52879 5.25028 2.02417 3.99004 2.91345 2.99663C3.61157 2.25952 4.54936 1.76691 5.57778 1.60185C6.45331 1.47048 7.34891 1.60213 8.14229 1.97752C8.78419 2.33978 9.32926 2.83853 9.73641 3.43394C10.1465 4.03363 10.4058 4.71542 10.4952 5.42563Z" fill="#F5F5F5" stroke="#D3D3D3" stroke-linecap="round" stroke-linejoin="round"/>
</svg>
