<svg width="96" height="102" viewBox="0 0 96 102" fill="none" xmlns="http://www.w3.org/2000/svg">
<path d="M89.3434 51.1349L50.8844 66.646C48.6963 67.5285 49.0889 70.7342 51.4254 71.0642L70.9231 73.8174C71.813 73.943 72.5488 74.5733 72.8088 75.4325L78.2271 93.341C78.9054 95.583 82.1117 95.5019 82.6755 93.2284L92.4471 53.8254C92.8999 51.9996 91.0898 50.4305 89.3434 51.1349Z" fill="white"/>
<path fill-rule="evenodd" clip-rule="evenodd" d="M51.0688 83.3737C45.4062 83.3737 39.8423 81.8924 34.9312 79.0773C30.02 76.2622 25.933 72.2115 23.0769 67.3285C20.2208 62.4455 18.6953 56.9006 18.6523 51.2457C18.6094 45.5909 20.0504 40.0234 22.8319 35.0977C25.6135 30.172 29.6385 26.0598 34.5063 23.1705C39.374 20.2813 44.9147 18.7159 50.5767 18.63C56.2387 18.5442 61.8244 19.9409 66.7778 22.6813C71.7311 25.4216 75.8793 29.4099 78.8093 34.249L94.7698 24.6113C91.6632 19.4805 87.6873 14.9568 83.0404 11.2311C80.783 9.42116 78.3673 7.79952 75.8159 6.38804C68.0127 2.07106 59.2132 -0.129357 50.2936 0.00587582C41.374 0.141102 32.6454 2.60726 24.977 7.15881C17.3085 11.7104 10.9677 18.1885 6.58578 25.9483C2.20387 33.708 -0.0662363 42.4787 0.0014714 51.3871C0.0691791 60.2955 2.47234 69.0307 6.97169 76.7232C11.471 84.4156 17.9096 90.7969 25.6464 95.2317C28.176 96.6817 30.8155 97.907 33.5344 98.8996C39.1314 100.943 45.0648 102 51.0688 102V83.3737Z" fill="url(#paint0_angular_1073_10045)"/>
<ellipse cx="51.4757" cy="92.6858" rx="9.32729" ry="9.31473" fill="#B2B9FF"/>
<ellipse cx="86.5751" cy="29.1093" rx="9.42471" ry="9.41201" fill="white"/>
<defs>
<radialGradient id="paint0_angular_1073_10045" cx="0" cy="0" r="1" gradientUnits="userSpaceOnUse" gradientTransform="translate(47.3427 50.7811) rotate(-16.837) scale(60.4549 60.6305)">
<stop offset="0.0582758" stop-color="white"/>
<stop offset="0.937636" stop-color="white" stop-opacity="0.1"/>
</radialGradient>
</defs>
</svg>
