<svg width="36" height="36" viewBox="0 0 36 36" fill="none" xmlns="http://www.w3.org/2000/svg">
<circle cx="18" cy="16.8497" r="8.5" fill="#4579FF"/>
<path d="M22.25 26.3497V23.3497C22.25 22.7974 21.8023 22.3497 21.25 22.3497H14.75C14.1977 22.3497 13.75 22.7974 13.75 23.3497V26.3497C13.75 27.4543 14.6454 28.3497 15.75 28.3497H20.25C21.3546 28.3497 22.25 27.4543 22.25 26.3497Z" fill="#4579FF"/>
<path d="M22.25 31.8997V30.8997C22.25 30.3474 21.8023 29.8997 21.25 29.8997H14.75C14.1977 29.8997 13.75 30.3474 13.75 30.8997V31.8997C13.75 33.0043 14.6454 33.8997 15.75 33.8997H20.25C21.3546 33.8997 22.25 33.0043 22.25 31.8997Z" fill="#4579FF"/>
<rect x="17" y="2" width="2" height="4" rx="1" fill="#4579FF"/>
<rect x="29" y="16.548" width="2" height="4" rx="1" transform="rotate(-90 29 16.548)" fill="#4579FF"/>
<rect x="3" y="16.548" width="2" height="4" rx="1" transform="rotate(-90 3 16.548)" fill="#4579FF"/>
<rect x="6.87695" y="6.84709" width="2" height="4" rx="1" transform="rotate(-50 6.87695 6.84709)" fill="#4579FF"/>
<rect x="27.9414" y="5.31505" width="2" height="4" rx="1" transform="rotate(50 27.9414 5.31505)" fill="#4579FF"/>
</svg>
