<svg width="148" height="120" viewBox="0 0 157 136" fill="none" xmlns="http://www.w3.org/2000/svg">
<g filter="url(#filter0_d_1220_5912)">
<path d="M45.5154 97.2802C45.5154 94.3316 45.5449 91.383 45.5154 88.4344C45.4854 87.5742 45.6442 86.7178 45.9807 85.9255C46.3172 85.1331 46.8232 84.4239 47.4632 83.8477C61.0454 70.9132 74.6199 57.97 88.1868 45.018C88.5442 44.6904 88.8983 44.3398 89.259 44.0057C89.4919 43.7894 89.646 43.5568 89.364 43.2816C89.1574 43.0752 88.9213 42.895 88.6065 43.085C88.2917 43.2751 88.049 43.4127 87.7802 43.6125C71.4894 54.9351 55.2031 66.2643 38.9211 77.6C38.0947 78.1766 37.5307 78.1668 36.6585 77.7081C31.5693 75.015 26.444 72.3842 21.3121 69.7731C19.184 68.6919 17.9248 67.0669 18.0035 64.6393C18.0822 62.2116 19.4561 60.675 21.6368 59.7249C49.2274 47.7274 76.8125 35.7146 104.392 23.6866C106.583 22.7332 108.622 22.7234 110.478 24.2828C112.334 25.8423 112.679 27.8867 112.118 30.18C107.573 48.8261 103.041 67.4743 98.5226 86.1247C97.4143 90.6874 96.3048 95.2501 95.1943 99.8127C94.2105 103.944 90.7117 105.54 86.9145 103.584C80.2021 100.124 73.47 96.6774 66.7871 93.1686C65.8887 92.7001 65.5116 92.8409 65.0164 93.6797C61.8772 98.8954 58.7074 104.093 55.5069 109.271C53.5394 112.469 49.4045 112.924 46.9287 110.277C45.9952 109.288 45.4876 107.973 45.5154 106.614C45.5154 103.502 45.5154 100.39 45.5154 97.2802Z" fill="white"/>
</g>
<g filter="url(#filter1_i_1220_5912)">
<path d="M51.161 90.0879C51.161 87.7017 51.1848 85.3156 51.161 82.9294C51.1368 82.2333 51.2647 81.5402 51.5357 80.899C51.8067 80.2578 52.2143 79.6839 52.7298 79.2176C63.6689 68.7503 74.6018 58.2759 85.5286 47.7944C85.8165 47.5293 86.1017 47.2456 86.3922 46.9751C86.5797 46.8002 86.7039 46.6119 86.4767 46.3892C86.3103 46.2222 86.1202 46.0764 85.8666 46.2301C85.6131 46.3839 85.4177 46.4953 85.2011 46.657C72.0805 55.8199 58.9635 64.9881 45.8499 74.1616C45.1844 74.6282 44.7301 74.6202 44.0276 74.2491C39.9287 72.0697 35.8008 69.9407 31.6676 67.8276C29.9536 66.9527 28.9394 65.6376 29.0028 63.673C29.0662 61.7084 30.1728 60.465 31.9291 59.6961C54.1506 49.987 76.3678 40.2656 98.5805 30.5318C100.345 29.7603 101.987 29.7523 103.482 31.0143C104.977 32.2764 105.254 33.9308 104.803 35.7867C101.142 50.8761 97.4924 65.9673 93.8531 81.0602C92.9605 84.7526 92.0669 88.445 91.1725 92.1374C90.3802 95.4807 87.5622 96.7718 84.5039 95.189C79.0977 92.3892 73.6757 89.6001 68.2933 86.7605C67.5697 86.3814 67.2659 86.4954 66.8671 87.1741C64.3388 91.395 61.7858 95.6008 59.2082 99.7917C57.6236 102.379 54.2932 102.748 52.2993 100.606C51.5474 99.8056 51.1386 98.7411 51.161 97.6415C51.161 95.1227 51.161 92.6049 51.161 90.0879Z" fill="url(#paint0_linear_1220_5912)"/>
</g>
<g filter="url(#filter2_d_1220_5912)">
<circle cx="34.054" cy="20.3333" r="8.33333" fill="url(#paint1_linear_1220_5912)"/>
</g>
<g opacity="0.8" filter="url(#filter3_d_1220_5912)">
<circle cx="146.562" cy="33.0487" r="2.83348" fill="url(#paint2_linear_1220_5912)"/>
</g>
<g opacity="0.8" filter="url(#filter4_d_1220_5912)">
<path d="M131.988 14.3587C132.321 13.5146 133.515 13.5146 133.848 14.3587L134.739 16.6161C134.84 16.8738 135.044 17.0778 135.302 17.1794L137.559 18.0697C138.403 18.4027 138.403 19.5973 137.559 19.9303L135.302 20.8206C135.044 20.9222 134.84 21.1262 134.739 21.3839L133.848 23.6413C133.515 24.4854 132.321 24.4854 131.988 23.6413L131.097 21.3839C130.996 21.1262 130.792 20.9222 130.534 20.8206L128.277 19.9303C127.433 19.5973 127.433 18.4027 128.277 18.0697L130.534 17.1794C130.792 17.0778 130.996 16.8738 131.097 16.6161L131.988 14.3587Z" fill="url(#paint3_linear_1220_5912)"/>
</g>
<g opacity="0.8" filter="url(#filter5_d_1220_5912)">
<path d="M128.225 35.8122C128.558 34.9681 129.753 34.9681 130.086 35.8122L132.317 41.468C132.418 41.7257 132.622 41.9297 132.88 42.0313L138.536 44.2619C139.38 44.5949 139.38 45.7895 138.536 46.1225L132.88 48.3531C132.622 48.4547 132.418 48.6587 132.317 48.9164L130.086 54.5722C129.753 55.4163 128.558 55.4163 128.225 54.5722L125.995 48.9164C125.893 48.6587 125.689 48.4547 125.431 48.3531L119.776 46.1225C118.932 45.7895 118.932 44.5949 119.776 44.2619L125.431 42.0313C125.689 41.9297 125.893 41.7257 125.995 41.468L128.225 35.8122Z" fill="url(#paint4_linear_1220_5912)"/>
</g>
<g filter="url(#filter6_d_1220_5912)">
<circle cx="53.8657" cy="26.977" r="3.64305" fill="url(#paint5_linear_1220_5912)"/>
</g>
<defs>
<filter id="filter0_d_1220_5912" x="0" y="11.0294" width="130.362" height="124.971" filterUnits="userSpaceOnUse" color-interpolation-filters="sRGB">
<feFlood flood-opacity="0" result="BackgroundImageFix"/>
<feColorMatrix in="SourceAlpha" type="matrix" values="0 0 0 0 0 0 0 0 0 0 0 0 0 0 0 0 0 0 127 0" result="hardAlpha"/>
<feOffset dy="6"/>
<feGaussianBlur stdDeviation="9"/>
<feComposite in2="hardAlpha" operator="out"/>
<feColorMatrix type="matrix" values="0 0 0 0 0 0 0 0 0 0 0 0 0 0 0 0 0 0 0.22 0"/>
<feBlend mode="normal" in2="BackgroundImageFix" result="effect1_dropShadow_1220_5912"/>
<feBlend mode="normal" in="SourceGraphic" in2="effect1_dropShadow_1220_5912" result="shape"/>
</filter>
<filter id="filter1_i_1220_5912" x="29" y="30" width="76" height="75" filterUnits="userSpaceOnUse" color-interpolation-filters="sRGB">
<feFlood flood-opacity="0" result="BackgroundImageFix"/>
<feBlend mode="normal" in="SourceGraphic" in2="BackgroundImageFix" result="shape"/>
<feColorMatrix in="SourceAlpha" type="matrix" values="0 0 0 0 0 0 0 0 0 0 0 0 0 0 0 0 0 0 127 0" result="hardAlpha"/>
<feOffset dy="3"/>
<feGaussianBlur stdDeviation="4"/>
<feComposite in2="hardAlpha" operator="arithmetic" k2="-1" k3="1"/>
<feColorMatrix type="matrix" values="0 0 0 0 1 0 0 0 0 1 0 0 0 0 1 0 0 0 1 0"/>
<feBlend mode="normal" in2="shape" result="effect1_innerShadow_1220_5912"/>
</filter>
<filter id="filter2_d_1220_5912" x="22.7207" y="9" width="32.667" height="32.6667" filterUnits="userSpaceOnUse" color-interpolation-filters="sRGB">
<feFlood flood-opacity="0" result="BackgroundImageFix"/>
<feColorMatrix in="SourceAlpha" type="matrix" values="0 0 0 0 0 0 0 0 0 0 0 0 0 0 0 0 0 0 127 0" result="hardAlpha"/>
<feOffset dx="5" dy="5"/>
<feGaussianBlur stdDeviation="4"/>
<feColorMatrix type="matrix" values="0 0 0 0 0.972549 0 0 0 0 0.380392 0 0 0 0 0.356863 0 0 0 0.599377 0"/>
<feBlend mode="normal" in2="BackgroundImageFix" result="effect1_dropShadow_1220_5912"/>
<feBlend mode="normal" in="SourceGraphic" in2="effect1_dropShadow_1220_5912" result="shape"/>
</filter>
<filter id="filter3_d_1220_5912" x="140.729" y="27.2152" width="15.667" height="15.667" filterUnits="userSpaceOnUse" color-interpolation-filters="sRGB">
<feFlood flood-opacity="0" result="BackgroundImageFix"/>
<feColorMatrix in="SourceAlpha" type="matrix" values="0 0 0 0 0 0 0 0 0 0 0 0 0 0 0 0 0 0 127 0" result="hardAlpha"/>
<feOffset dx="2" dy="2"/>
<feGaussianBlur stdDeviation="2.5"/>
<feColorMatrix type="matrix" values="0 0 0 0 0.972549 0 0 0 0 0.380392 0 0 0 0 0.356863 0 0 0 0.599377 0"/>
<feBlend mode="normal" in2="BackgroundImageFix" result="effect1_dropShadow_1220_5912"/>
<feBlend mode="normal" in="SourceGraphic" in2="effect1_dropShadow_1220_5912" result="shape"/>
</filter>
<filter id="filter4_d_1220_5912" x="124.644" y="7.72559" width="26.5488" height="26.5488" filterUnits="userSpaceOnUse" color-interpolation-filters="sRGB">
<feFlood flood-opacity="0" result="BackgroundImageFix"/>
<feColorMatrix in="SourceAlpha" type="matrix" values="0 0 0 0 0 0 0 0 0 0 0 0 0 0 0 0 0 0 127 0" result="hardAlpha"/>
<feOffset dx="5" dy="2"/>
<feGaussianBlur stdDeviation="4"/>
<feColorMatrix type="matrix" values="0 0 0 0 0.533333 0 0 0 0 0.580392 0 0 0 0 1 0 0 0 0.599377 0"/>
<feBlend mode="normal" in2="BackgroundImageFix" result="effect1_dropShadow_1220_5912"/>
<feBlend mode="normal" in="SourceGraphic" in2="effect1_dropShadow_1220_5912" result="shape"/>
</filter>
<filter id="filter5_d_1220_5912" x="116.143" y="32.1791" width="36.0264" height="36.0262" filterUnits="userSpaceOnUse" color-interpolation-filters="sRGB">
<feFlood flood-opacity="0" result="BackgroundImageFix"/>
<feColorMatrix in="SourceAlpha" type="matrix" values="0 0 0 0 0 0 0 0 0 0 0 0 0 0 0 0 0 0 127 0" result="hardAlpha"/>
<feOffset dx="5" dy="5"/>
<feGaussianBlur stdDeviation="4"/>
<feColorMatrix type="matrix" values="0 0 0 0 0.53329 0 0 0 0 0.579961 0 0 0 0 1 0 0 0 0.599377 0"/>
<feBlend mode="normal" in2="BackgroundImageFix" result="effect1_dropShadow_1220_5912"/>
<feBlend mode="normal" in="SourceGraphic" in2="effect1_dropShadow_1220_5912" result="shape"/>
</filter>
<filter id="filter6_d_1220_5912" x="50.2227" y="21.3339" width="17.2861" height="17.2861" filterUnits="userSpaceOnUse" color-interpolation-filters="sRGB">
<feFlood flood-opacity="0" result="BackgroundImageFix"/>
<feColorMatrix in="SourceAlpha" type="matrix" values="0 0 0 0 0 0 0 0 0 0 0 0 0 0 0 0 0 0 127 0" result="hardAlpha"/>
<feOffset dx="5" dy="3"/>
<feGaussianBlur stdDeviation="2.5"/>
<feColorMatrix type="matrix" values="0 0 0 0 0.972549 0 0 0 0 0.380392 0 0 0 0 0.356863 0 0 0 0.599377 0"/>
<feBlend mode="normal" in2="BackgroundImageFix" result="effect1_dropShadow_1220_5912"/>
<feBlend mode="normal" in="SourceGraphic" in2="effect1_dropShadow_1220_5912" result="shape"/>
</filter>
<linearGradient id="paint0_linear_1220_5912" x1="70.7531" y1="34.7368" x2="102.647" y2="49.0542" gradientUnits="userSpaceOnUse">
<stop stop-color="#B271F2"/>
<stop offset="1" stop-color="#8F36E1"/>
</linearGradient>
<linearGradient id="paint1_linear_1220_5912" x1="20.6185" y1="20.7441" x2="33.5728" y2="34.1679" gradientUnits="userSpaceOnUse">
<stop stop-color="#FFF6A7"/>
<stop offset="1" stop-color="#FF9649"/>
</linearGradient>
<linearGradient id="paint2_linear_1220_5912" x1="141.994" y1="33.1884" x2="146.398" y2="37.7527" gradientUnits="userSpaceOnUse">
<stop stop-color="#FFF6A7"/>
<stop offset="1" stop-color="#FF9649"/>
</linearGradient>
<linearGradient id="paint3_linear_1220_5912" x1="121.632" y1="19.3451" x2="132.514" y2="30.621" gradientUnits="userSpaceOnUse">
<stop stop-color="#70E1F9"/>
<stop offset="1" stop-color="#5B9AF8"/>
</linearGradient>
<linearGradient id="paint4_linear_1220_5912" x1="110.23" y1="45.7708" x2="128.478" y2="64.6802" gradientUnits="userSpaceOnUse">
<stop stop-color="#70E1F9"/>
<stop offset="1" stop-color="#5B9AF8"/>
</linearGradient>
<linearGradient id="paint5_linear_1220_5912" x1="47.9922" y1="27.1565" x2="53.6553" y2="33.025" gradientUnits="userSpaceOnUse">
<stop stop-color="#F9A070"/>
<stop offset="1" stop-color="#F8615B"/>
</linearGradient>
</defs>
</svg>
