<svg width="36" height="36" viewBox="0 0 36 36" fill="none" xmlns="http://www.w3.org/2000/svg">
<path d="M32.45 10.4C32.1186 10.1515 31.6485 10.2186 31.4 10.55C31.1515 10.8814 31.2186 11.3515 31.55 11.6L32.45 10.4ZM31.4143 22.0315C31.1556 22.3549 31.208 22.8269 31.5315 23.0857C31.8549 23.3444 32.3269 23.292 32.5857 22.9685L31.4143 22.0315ZM32 11C31.55 11.6 31.5496 11.5997 31.5493 11.5995C31.5492 11.5994 31.5488 11.5991 31.5486 11.5989C31.5481 11.5986 31.5477 11.5983 31.5474 11.598C31.5466 11.5974 31.546 11.5969 31.5454 11.5965C31.5444 11.5957 31.5438 11.5953 31.5436 11.5952C31.5434 11.5949 31.5449 11.5961 31.5481 11.5987C31.5545 11.6039 31.5675 11.6149 31.5864 11.6317C31.6242 11.6654 31.685 11.7228 31.7614 11.8056C31.9142 11.9711 32.1295 12.2383 32.3488 12.6221C32.7846 13.3847 33.25 14.6316 33.25 16.5H34.75C34.75 14.3684 34.2154 12.8653 33.6512 11.8779C33.3705 11.3867 33.0858 11.0289 32.8636 10.7882C32.7525 10.6678 32.6571 10.5768 32.5854 10.5128C32.5496 10.4808 32.5198 10.4556 32.4969 10.4369C32.4854 10.4276 32.4757 10.4198 32.4678 10.4137C32.4639 10.4106 32.4605 10.408 32.4575 10.4057C32.456 10.4045 32.4546 10.4035 32.4534 10.4025C32.4527 10.4021 32.4522 10.4016 32.4516 10.4012C32.4513 10.401 32.4509 10.4007 32.4508 10.4006C32.4504 10.4003 32.45 10.4 32 11ZM33.25 16.5C33.25 18.1086 32.7897 19.4981 32.3214 20.4932C32.088 20.989 31.8554 21.3812 31.6833 21.6465C31.5973 21.779 31.5268 21.8794 31.4794 21.9446C31.4557 21.9772 31.4378 22.001 31.4266 22.0156C31.421 22.0229 31.4171 22.0279 31.415 22.0306C31.414 22.0319 31.4134 22.0327 31.4133 22.0328C31.4132 22.0329 31.4133 22.0328 31.4135 22.0326C31.4135 22.0325 31.4137 22.0323 31.4138 22.0321C31.4139 22.0321 31.414 22.0319 31.4141 22.0318C31.4142 22.0317 31.4143 22.0315 32 22.5C32.5857 22.9685 32.5858 22.9683 32.586 22.9681C32.5861 22.968 32.5862 22.9678 32.5864 22.9676C32.5866 22.9673 32.5869 22.9669 32.5873 22.9665C32.5879 22.9657 32.5887 22.9647 32.5896 22.9635C32.5914 22.9613 32.5937 22.9584 32.5964 22.9549C32.6019 22.9478 32.6093 22.9384 32.6183 22.9265C32.6365 22.9028 32.6615 22.8695 32.6925 22.8269C32.7544 22.7417 32.8402 22.6194 32.9417 22.4628C33.1446 22.1501 33.412 21.6985 33.6786 21.1318C34.2104 20.0019 34.75 18.3914 34.75 16.5H33.25Z" fill="#4579FF"/>
<path d="M29.4622 13.4094C29.136 13.1541 28.6647 13.2116 28.4094 13.5378C28.1541 13.864 28.2116 14.3353 28.5378 14.5906L29.4622 13.4094ZM28.4048 19.5437C28.1528 19.8724 28.215 20.3432 28.5437 20.5952C28.8724 20.8472 29.3432 20.785 29.5952 20.4563L28.4048 19.5437ZM29 14C28.5378 14.5906 28.5374 14.5903 28.537 14.5901C28.5369 14.59 28.5366 14.5897 28.5363 14.5895C28.5359 14.5891 28.5354 14.5888 28.535 14.5884C28.5341 14.5877 28.5333 14.5871 28.5325 14.5865C28.531 14.5852 28.5297 14.5842 28.5286 14.5833C28.5265 14.5816 28.5252 14.5805 28.5248 14.5801C28.5239 14.5794 28.5264 14.5815 28.5317 14.5864C28.5424 14.5964 28.5645 14.6179 28.5945 14.6518C28.6544 14.7196 28.7462 14.8372 28.8422 15.0124C29.0315 15.3582 29.25 15.9517 29.25 16.8696H30.75C30.75 15.7005 30.4685 14.8592 30.1578 14.2919C30.0038 14.0106 29.8456 13.8022 29.718 13.658C29.6543 13.5859 29.5982 13.53 29.5542 13.489C29.5322 13.4685 29.5132 13.4517 29.4977 13.4385C29.4899 13.4319 29.4831 13.4261 29.4771 13.4213C29.4742 13.4189 29.4714 13.4167 29.469 13.4147C29.4677 13.4137 29.4665 13.4128 29.4654 13.4119C29.4648 13.4114 29.4643 13.411 29.4638 13.4106C29.4635 13.4104 29.4631 13.4101 29.463 13.41C29.4626 13.4097 29.4622 13.4094 29 14ZM29.25 16.8696C29.25 17.6472 29.0364 18.3232 28.8163 18.8112C28.707 19.0537 28.5984 19.2445 28.5193 19.3717C28.4798 19.4352 28.4481 19.4823 28.4277 19.5115C28.4175 19.5262 28.4102 19.5363 28.4062 19.5417C28.4042 19.5444 28.403 19.546 28.4028 19.5463C28.4027 19.5465 28.4028 19.5463 28.4031 19.5459C28.4033 19.5457 28.4035 19.5454 28.4038 19.545C28.4039 19.5448 28.4041 19.5446 28.4042 19.5444C28.4043 19.5443 28.4045 19.5441 28.4045 19.5441C28.4046 19.5439 28.4048 19.5437 29 20C29.5952 20.4563 29.5954 20.4561 29.5955 20.4559C29.5956 20.4558 29.5957 20.4556 29.5959 20.4555C29.5961 20.4552 29.5963 20.4548 29.5966 20.4545C29.5971 20.4538 29.5977 20.453 29.5984 20.4522C29.5996 20.4505 29.6012 20.4485 29.6029 20.4461C29.6065 20.4414 29.6109 20.4354 29.6163 20.4281C29.6269 20.4135 29.6411 20.3938 29.6583 20.3692C29.6926 20.32 29.7389 20.251 29.7932 20.1636C29.9016 19.9892 30.043 19.7398 30.1837 19.4279C30.4636 18.8072 30.75 17.918 30.75 16.8696H29.25Z" fill="#4579FF"/>
<path d="M12.5498 12.2452C12.5498 11.2809 13.1044 10.4026 13.975 9.98802L22.975 5.7023C24.634 4.9123 26.5498 6.12195 26.5498 7.95945V24.0405C26.5498 25.8781 24.634 27.0877 22.975 26.2977L13.975 22.012C13.1044 21.5974 12.5498 20.7191 12.5498 19.7548V12.2452Z" fill="#4579FF"/>
<path d="M5 24.5C5 23.6716 5.67157 23 6.5 23H9.5C10.3284 23 11 23.6716 11 24.5V30.5C11 31.3284 10.3284 32 9.5 32H6.5C5.67157 32 5 31.3284 5 30.5V24.5Z" fill="#4579FF"/>
<path d="M1 14.5C1 12.2909 2.79086 10.5 5 10.5L9 10.5C10.1046 10.5 11 11.3954 11 12.5L11 19.5C11 20.6046 10.1046 21.5 9 21.5H5C2.79086 21.5 1 19.7091 1 17.5L1 14.5Z" fill="#4579FF"/>
</svg>
