<svg width="15" height="14" viewBox="0 0 15 14" fill="none" xmlns="http://www.w3.org/2000/svg">
<path d="M5.22296 0.802965C4.80732 0.439283 4.17556 0.481401 3.81188 0.897037C3.44819 1.31267 3.49031 1.94444 3.90595 2.30812L5.22296 0.802965ZM10.7867 6.99999L11.4452 7.75256C11.6622 7.56267 11.7867 7.28835 11.7867 6.99999C11.7867 6.71162 11.6622 6.4373 11.4452 6.24741L10.7867 6.99999ZM3.90595 11.6919C3.49031 12.0555 3.44819 12.6873 3.81188 13.1029C4.17556 13.5186 4.80732 13.5607 5.22296 13.197L3.90595 11.6919ZM3.90595 2.30812L10.1282 7.75256L11.4452 6.24741L5.22296 0.802965L3.90595 2.30812ZM10.1282 6.24741L3.90595 11.6919L5.22296 13.197L11.4452 7.75256L10.1282 6.24741Z" fill="#AEAEAE"/>
</svg>
