<svg width="40" height="40" viewBox="0 0 40 40" fill="none" xmlns="http://www.w3.org/2000/svg">
<circle cx="20" cy="20" r="20" fill="#F5F5F5"/>
<path d="M17.6328 22.5469V22.7617H20.2109V22.5469C20.2207 21.1797 20.709 20.5449 21.8125 19.8906C23.0918 19.1191 23.9219 18.1035 23.9219 16.4922C23.9219 14.0801 21.998 12.6641 19.2734 12.6641C16.7734 12.6641 14.7324 13.9824 14.6836 16.7266H17.457C17.4961 15.584 18.3457 14.9785 19.2539 14.9688C20.2012 14.9785 20.9629 15.6133 20.9531 16.5898C20.9629 17.4883 20.3086 18.0938 19.4688 18.6406C18.2969 19.373 17.6426 20.1152 17.6328 22.5469ZM17.3398 25.5352C17.3203 26.4434 18.0625 27.1758 18.9805 27.1758C19.8496 27.1758 20.6016 26.4434 20.6016 25.5352C20.6016 24.6367 19.8496 23.9043 18.9805 23.9141C18.0625 23.9043 17.3203 24.6367 17.3398 25.5352Z" fill="#858585"/>
</svg>
