<svg width="352" height="46" viewBox="0 0 352 46" fill="none" xmlns="http://www.w3.org/2000/svg">
<rect x="24" y="10" width="317" height="10.8068" rx="5.40341" fill="#4579FF"/>
<path d="M24 14.8608C24 12.1763 26.1744 10 28.8567 10H304.068C306.75 10 308.924 12.1763 308.924 14.8608V14.8608C308.924 17.5454 306.75 19.7216 304.068 19.7216H28.8567C26.1744 19.7216 24 17.5454 24 14.8608V14.8608Z" fill="#4579FF"/>
<rect x="24" y="10" width="158.09" height="10.8068" rx="5.40341" fill="#4579FF"/>
<path d="M24 14.8608C24 12.1763 26.1744 10 28.8567 10H161.237C163.919 10 166.093 12.1763 166.093 14.8608V14.8608C166.093 17.5454 163.919 19.7216 161.237 19.7216H28.8567C26.1744 19.7216 24 17.5454 24 14.8608V14.8608Z" fill="#4579FF"/>
<path d="M161.508 35.5581C159.911 35.5581 158.799 36.419 158.805 37.7227C158.799 38.8726 159.702 39.6905 161.054 39.8381V40.945C160.009 40.9819 159.014 40.9881 158.166 40.9819L158.289 41.7814C160.175 41.7875 162.793 41.7506 165.109 41.3386L165.035 40.6129C164.083 40.7544 163.045 40.8466 162.025 40.902V39.832C163.339 39.6659 164.218 38.8542 164.224 37.7227C164.218 36.419 163.106 35.5581 161.508 35.5581ZM159.714 37.7227C159.702 36.8741 160.446 36.3083 161.508 36.3083C162.578 36.3083 163.309 36.8741 163.315 37.7227C163.309 38.5529 162.578 39.1186 161.508 39.1248C160.446 39.1186 159.702 38.5529 159.714 37.7227ZM159.764 45.7293H167.1V44.9176H160.734V42.6915H159.764V45.7293ZM165.736 43.4171H166.707V39.5798H168.341V38.7558H166.707V35.0538H165.736V43.4171Z" fill="#868686"/>
<path d="M177.594 35.0415H176.636V41.6092H177.594V38.6943H179.241V37.8949H177.594V35.0415ZM169.066 40.8343L169.471 41.6215C172.654 40.6806 174.614 38.639 174.62 35.8532H169.545V36.6527H173.582C173.385 38.5529 171.702 40.0718 169.066 40.8343ZM170.565 43.8353C170.559 45.1636 171.966 45.9507 174.141 45.9507C176.335 45.9507 177.717 45.1636 177.717 43.8353C177.717 42.5254 176.335 41.726 174.141 41.7322C171.966 41.726 170.559 42.5254 170.565 43.8353ZM171.524 43.8353C171.511 43.0113 172.537 42.5008 174.141 42.507C175.745 42.5008 176.783 43.0113 176.783 43.8353C176.783 44.6593 175.745 45.182 174.141 45.1759C172.537 45.182 171.511 44.6593 171.524 43.8353Z" fill="#868686"/>
<path d="M183.812 37.981V35.9885H182.854V37.981C182.841 40.0533 181.496 42.1442 179.867 42.8883L180.482 43.7C181.76 43.0543 182.835 41.6707 183.339 40.0226C183.861 41.5784 184.936 42.876 186.184 43.4786L186.774 42.7161C185.164 41.9843 183.806 39.9796 183.812 37.981ZM187.966 45.9999H188.936V35.0415H187.966V45.9999Z" fill="#868686"/>
<path d="M199.345 35.0415H198.374V43.0481H199.345V39.1863H200.991V38.3745H199.345V35.0415ZM190.817 41.0065L191.234 41.7814C194.386 40.7974 196.395 38.7066 196.395 35.8901H191.271V36.7019H195.345C195.142 38.6328 193.44 40.1886 190.817 41.0065ZM192.5 45.7416H199.849V44.9299H193.459V42.2364H192.5V45.7416Z" fill="#868686"/>
<path d="M329.365 35.0415H328.407V45.9753H329.365V40.3055H331.135V39.4937H329.365V35.0415ZM320.984 43.1342L321.525 43.8968C325.083 42.138 326.533 39.3154 326.539 36.2222H321.488V37.0339H325.562C325.341 39.6229 323.805 41.7322 320.984 43.1342Z" fill="#585858"/>
<path d="M337.549 35.7917H332.511V36.5789H336.511C336.314 38.4483 334.625 39.9119 331.958 40.6498L332.339 41.4247C334.698 40.779 336.413 39.5306 337.15 37.8088H339.872V39.3216H336.972V40.121H339.872V41.5723H340.843V35.0538H339.872V37.0093H337.414C337.5 36.6219 337.549 36.2161 337.549 35.7917ZM333.494 42.8268H339.872V45.963H340.843V42.0519H333.494V42.8268Z" fill="#585858"/>
<path d="M352 35.0415H351.079V39.4445H349.469V35.2875H348.584V45.4096H349.469V40.244H351.079V45.9753H352V35.0415ZM343.067 43.2695H343.767C345.445 43.2634 346.557 43.2203 347.872 42.9498L347.786 42.138C346.569 42.384 345.531 42.4393 344.025 42.4455V37.1815H347.159V36.3821H343.067V43.2695Z" fill="#585858"/>
<path d="M8.5282 35.0415H7.5697V41.6092H8.5282V38.6943H10.1749V37.8949H8.5282V35.0415ZM0 40.8343L0.40552 41.6215C3.58824 40.6806 5.54825 38.639 5.55439 35.8532H0.479251V36.6527H4.51602C4.3194 38.5529 2.63588 40.0718 0 40.8343ZM1.49919 43.8353C1.49305 45.1636 2.90008 45.9507 5.07514 45.9507C7.26864 45.9507 8.65109 45.1636 8.65109 43.8353C8.65109 42.5254 7.26864 41.726 5.07514 41.7322C2.90008 41.726 1.49305 42.5254 1.49919 43.8353ZM2.4577 43.8353C2.44541 43.0113 3.4715 42.5008 5.07514 42.507C6.67879 42.5008 7.71717 43.0113 7.71717 43.8353C7.71717 44.6593 6.67879 45.182 5.07514 45.1759C3.4715 45.182 2.44541 44.6593 2.4577 43.8353Z" fill="#868686"/>
<path d="M14.439 35.8409C12.7124 35.8471 11.4836 36.8925 11.4897 38.4114C11.4836 39.9365 12.7124 40.9758 14.439 40.9819C16.1532 40.9758 17.3698 39.9365 17.3759 38.4114C17.3698 36.8925 16.1532 35.8471 14.439 35.8409ZM10.9245 42.7653L11.0596 43.5893C13.0258 43.5893 15.7108 43.577 18.2115 43.1096L18.1378 42.3963C15.7231 42.753 12.9398 42.7714 10.9245 42.7653ZM12.4359 38.4114C12.4298 37.3968 13.2716 36.6896 14.439 36.6896C15.5941 36.6896 16.4358 37.3968 16.4297 38.4114C16.4358 39.4322 15.5941 40.1333 14.439 40.1333C13.2716 40.1333 12.4298 39.4322 12.4359 38.4114ZM18.8628 45.9999H19.8213V35.0415H18.8628V45.9999Z" fill="#868686"/>
<path d="M31.692 40.8343H21.726V41.6092H31.692V40.8343ZM22.8443 43.454H29.4186V45.9753H30.4017V42.6792H22.8443V43.454ZM23.0532 39.7766H30.5123V39.0264H24.024V37.9072H30.1559V37.1569H24.024V36.1115H30.4509V35.3367H23.0532V39.7766Z" fill="#868686"/>
<path d="M36.3739 36.7634V35.6688H35.4154V36.8003C35.4031 38.4975 34.2849 39.9488 32.6013 40.5392L33.1297 41.3263C34.4508 40.8282 35.4461 39.8135 35.9131 38.5037C36.3862 39.6536 37.3324 40.5453 38.5367 40.9942L39.0774 40.244C37.4737 39.6967 36.3616 38.3253 36.3739 36.7634ZM34.3832 43.9091C34.377 45.2128 35.7718 45.9507 38.0451 45.9507C40.3124 45.9507 41.7071 45.2128 41.7071 43.9091C41.7071 42.5931 40.3124 41.8367 38.0451 41.8428C35.7718 41.8367 34.377 42.5931 34.3832 43.9091ZM35.3417 43.9091C35.3355 43.0912 36.3678 42.6054 38.0451 42.6054C39.7164 42.6054 40.7486 43.0912 40.7486 43.9091C40.7486 44.7024 39.7164 45.182 38.0451 45.1759C36.3678 45.182 35.3355 44.7024 35.3417 43.9091ZM38.2663 38.19H40.6994V41.5231H41.6702V35.0415H40.6994V37.3906H38.2663V38.19Z" fill="#868686"/>
<path d="M35.2269 14.3933C35.2269 22.3426 28.7883 28.7867 20.8459 28.7867C12.9035 28.7867 6.46484 22.3426 6.46484 14.3933C6.46484 6.44412 12.9035 0 20.8459 0C28.7883 0 35.2269 6.44412 35.2269 14.3933Z" fill="#4579FF"/>
<path d="M193.418 14.3933C193.418 22.3426 186.98 28.7867 179.037 28.7867C171.095 28.7867 164.656 22.3426 164.656 14.3933C164.656 6.44412 171.095 0 179.037 0C186.98 0 193.418 6.44412 193.418 14.3933Z" fill="#4579FF"/>
<path d="M351.61 14.3933C351.61 22.3426 345.171 28.7867 337.229 28.7867C329.286 28.7867 322.848 22.3426 322.848 14.3933C322.848 6.44412 329.286 0 337.229 0C345.171 0 351.61 6.44412 351.61 14.3933Z" fill="#4579FF"/>
<path d="M176.347 17.9917H181.803V16.6845H178.549V16.6424L179.707 15.5144C181.277 14.0912 181.698 13.3796 181.698 12.5099C181.698 11.1869 180.613 10.2539 178.98 10.2539C177.374 10.2539 176.268 11.208 176.273 12.6996H177.78C177.774 11.967 178.243 11.5137 178.959 11.5189C179.66 11.5137 180.171 11.9354 180.171 12.6153C180.171 13.2215 179.786 13.6432 179.075 14.3231L176.337 16.8427L176.347 17.9917Z" fill="white"/>
<path d="M337.208 18.0972C338.93 18.0972 340.168 17.1589 340.157 15.8517C340.168 14.8977 339.551 14.2177 338.43 14.0807V14.0174C339.283 13.8645 339.878 13.2584 339.873 12.4045C339.878 11.1974 338.819 10.2539 337.229 10.2539C335.665 10.2539 334.485 11.1658 334.459 12.4783H335.976C336.002 11.8932 336.555 11.5137 337.229 11.5189C337.903 11.5137 338.351 11.9143 338.345 12.4994C338.351 13.1002 337.824 13.5114 337.071 13.5114H336.365V14.6815H337.071C337.966 14.6868 338.519 15.1243 338.514 15.7463C338.519 16.363 337.977 16.7847 337.218 16.7899C336.481 16.7847 335.928 16.4104 335.902 15.8412H334.301C334.332 17.1747 335.533 18.0972 337.208 18.0972Z" fill="white"/>
<path d="M22.2053 10.3594H20.7096L18.8242 11.5612V12.9632L20.5727 11.8669H20.6148V17.9918H22.2053V10.3594Z" fill="white"/>
</svg>
