<svg width="137" height="30" viewBox="0 0 137 30" fill="none" xmlns="http://www.w3.org/2000/svg">
<rect x="21" y="4" width="100" height="4" rx="2" fill="#4579FF"/>
<rect x="21" y="4" width="49.8706" height="4" rx="2" fill="#4579FF"/>
<path d="M53.8555 18.0234C52.332 18.0234 51.2715 18.8438 51.2773 20.0859C51.2715 21.1816 52.1328 21.9609 53.4219 22.1016V23.1562C52.4258 23.1914 51.4766 23.1973 50.668 23.1914L50.7852 23.9531C52.584 23.959 55.0801 23.9238 57.2891 23.5312L57.2188 22.8398C56.3105 22.9746 55.3203 23.0625 54.3477 23.1152V22.0957C55.6016 21.9375 56.4395 21.1641 56.4453 20.0859C56.4395 18.8438 55.3789 18.0234 53.8555 18.0234ZM52.1445 20.0859C52.1328 19.2773 52.8418 18.7383 53.8555 18.7383C54.875 18.7383 55.5723 19.2773 55.5781 20.0859C55.5723 20.877 54.875 21.416 53.8555 21.4219C52.8418 21.416 52.1328 20.877 52.1445 20.0859ZM52.1914 27.7148H59.1875V26.9414H53.1172V24.8203H52.1914V27.7148ZM57.8867 25.5117H58.8125V21.8555H60.3711V21.0703H58.8125V17.543H57.8867V25.5117ZM69.1953 17.5312H68.2812V23.7891H69.1953V21.0117H70.7656V20.25H69.1953V17.5312ZM61.0625 23.0508L61.4492 23.8008C64.4844 22.9043 66.3535 20.959 66.3594 18.3047H61.5195V19.0664H65.3691C65.1816 20.877 63.5762 22.3242 61.0625 23.0508ZM62.4922 25.9102C62.4863 27.1758 63.8281 27.9258 65.9023 27.9258C67.9941 27.9258 69.3125 27.1758 69.3125 25.9102C69.3125 24.6621 67.9941 23.9004 65.9023 23.9062C63.8281 23.9004 62.4863 24.6621 62.4922 25.9102ZM63.4062 25.9102C63.3945 25.125 64.373 24.6387 65.9023 24.6445C67.4316 24.6387 68.4219 25.125 68.4219 25.9102C68.4219 26.6953 67.4316 27.1934 65.9023 27.1875C64.373 27.1934 63.3945 26.6953 63.4062 25.9102ZM75.125 20.332V18.4336H74.2109V20.332C74.1992 22.3066 72.916 24.2988 71.3633 25.0078L71.9492 25.7812C73.168 25.166 74.1934 23.8477 74.6738 22.2773C75.1719 23.7598 76.1973 24.9961 77.3867 25.5703L77.9492 24.8438C76.4141 24.1465 75.1191 22.2363 75.125 20.332ZM79.0859 27.9727H80.0117V17.5312H79.0859V27.9727ZM89.9375 17.5312H89.0117V25.1602H89.9375V21.4805H91.5078V20.707H89.9375V17.5312ZM81.8047 23.2148L82.2031 23.9531C85.209 23.0156 87.125 21.0234 87.125 18.3398H82.2383V19.1133H86.123C85.9297 20.9531 84.3066 22.4355 81.8047 23.2148ZM83.4102 27.7266H90.418V26.9531H84.3242V24.3867H83.4102V27.7266Z" fill="#868686"/>
<path d="M113.928 17.5312H113.014V27.9492H113.928V22.5469H115.615V21.7734H113.928V17.5312ZM105.936 25.2422L106.451 25.9688C109.844 24.293 111.227 21.6035 111.232 18.6562H106.416V19.4297H110.301C110.09 21.8965 108.625 23.9062 105.936 25.2422ZM121.732 18.2461H116.928V18.9961H120.742C120.555 20.7773 118.943 22.1719 116.4 22.875L116.764 23.6133C119.014 22.998 120.648 21.8086 121.352 20.168H123.947V21.6094H121.182V22.3711H123.947V23.7539H124.873V17.543H123.947V19.4062H121.604C121.686 19.0371 121.732 18.6504 121.732 18.2461ZM117.865 24.9492H123.947V27.9375H124.873V24.2109H117.865V24.9492ZM135.514 17.5312H134.635V21.7266H133.1V17.7656H132.256V27.4102H133.1V22.4883H134.635V27.9492H135.514V17.5312ZM126.994 25.3711H127.662C129.262 25.3652 130.322 25.3242 131.576 25.0664L131.494 24.293C130.334 24.5273 129.344 24.5801 127.908 24.5859V19.5703H130.896V18.8086H126.994V25.3711Z" fill="#585858"/>
<path d="M8.82422 17.5312H7.91016V23.7891H8.82422V21.0117H10.3945V20.25H8.82422V17.5312ZM0.691406 23.0508L1.07812 23.8008C4.11328 22.9043 5.98242 20.959 5.98828 18.3047H1.14844V19.0664H4.99805C4.81055 20.877 3.20508 22.3242 0.691406 23.0508ZM2.12109 25.9102C2.11523 27.1758 3.45703 27.9258 5.53125 27.9258C7.62305 27.9258 8.94141 27.1758 8.94141 25.9102C8.94141 24.6621 7.62305 23.9004 5.53125 23.9062C3.45703 23.9004 2.11523 24.6621 2.12109 25.9102ZM3.03516 25.9102C3.02344 25.125 4.00195 24.6387 5.53125 24.6445C7.06055 24.6387 8.05078 25.125 8.05078 25.9102C8.05078 26.6953 7.06055 27.1934 5.53125 27.1875C4.00195 27.1934 3.02344 26.6953 3.03516 25.9102ZM14.4609 18.293C12.8145 18.2988 11.6426 19.2949 11.6484 20.7422C11.6426 22.1953 12.8145 23.1855 14.4609 23.1914C16.0957 23.1855 17.2559 22.1953 17.2617 20.7422C17.2559 19.2949 16.0957 18.2988 14.4609 18.293ZM11.1094 24.8906L11.2383 25.6758C13.1133 25.6758 15.6738 25.6641 18.0586 25.2188L17.9883 24.5391C15.6855 24.8789 13.0312 24.8965 11.1094 24.8906ZM12.5508 20.7422C12.5449 19.7754 13.3477 19.1016 14.4609 19.1016C15.5625 19.1016 16.3652 19.7754 16.3594 20.7422C16.3652 21.7148 15.5625 22.3828 14.4609 22.3828C13.3477 22.3828 12.5449 21.7148 12.5508 20.7422ZM18.6797 27.9727H19.5938V17.5312H18.6797V27.9727ZM30.9141 23.0508H21.4102V23.7891H30.9141V23.0508ZM22.4766 25.5469H28.7461V27.9492H29.6836V24.8086H22.4766V25.5469ZM22.6758 22.043H29.7891V21.3281H23.6016V20.2617H29.4492V19.5469H23.6016V18.5508H29.7305V17.8125H22.6758V22.043ZM35.3789 19.1719V18.1289H34.4648V19.207C34.4531 20.8242 33.3867 22.207 31.7812 22.7695L32.2852 23.5195C33.5449 23.0449 34.4941 22.0781 34.9395 20.8301C35.3906 21.9258 36.293 22.7754 37.4414 23.2031L37.957 22.4883C36.4277 21.9668 35.3672 20.6602 35.3789 19.1719ZM33.4805 25.9805C33.4746 27.2227 34.8047 27.9258 36.9727 27.9258C39.1348 27.9258 40.4648 27.2227 40.4648 25.9805C40.4648 24.7266 39.1348 24.0059 36.9727 24.0117C34.8047 24.0059 33.4746 24.7266 33.4805 25.9805ZM34.3945 25.9805C34.3887 25.2012 35.373 24.7383 36.9727 24.7383C38.5664 24.7383 39.5508 25.2012 39.5508 25.9805C39.5508 26.7363 38.5664 27.1934 36.9727 27.1875C35.373 27.1934 34.3887 26.7363 34.3945 25.9805ZM37.1836 20.5312H39.5039V23.707H40.4297V17.5312H39.5039V19.7695H37.1836V20.5312Z" fill="#868686"/>
<circle cx="21" cy="6" r="6" fill="#4579FF"/>
<circle cx="71.1592" cy="6" r="6" fill="#4579FF"/>
<circle cx="121" cy="6" r="6" fill="#4579FF"/>
</svg>
