<svg width="394" height="53" viewBox="0 0 394 53" fill="none" xmlns="http://www.w3.org/2000/svg">
<rect x="24" y="10" width="352" height="12" rx="6" fill="#D3D3D3"/>
<rect x="24" y="10" width="175.544" height="12" rx="6" fill="#D3D3D3"/>
<path d="M180.498 39.5273C178.721 39.5273 177.483 40.4844 177.49 41.9336C177.483 43.2119 178.488 44.1211 179.992 44.2852V45.5156C178.83 45.5566 177.723 45.5635 176.779 45.5566L176.916 46.4453C179.015 46.4521 181.927 46.4111 184.504 45.9531L184.422 45.1465C183.362 45.3037 182.207 45.4062 181.072 45.4678V44.2783C182.535 44.0938 183.513 43.1914 183.52 41.9336C183.513 40.4844 182.275 39.5273 180.498 39.5273ZM178.502 41.9336C178.488 40.9902 179.315 40.3613 180.498 40.3613C181.688 40.3613 182.501 40.9902 182.508 41.9336C182.501 42.8564 181.688 43.4854 180.498 43.4922C179.315 43.4854 178.488 42.8564 178.502 41.9336ZM178.557 50.834H186.719V49.9316H179.637V47.457H178.557V50.834ZM185.201 48.2637H186.281V43.998H188.1V43.082H186.281V38.9668H185.201V48.2637ZM198.395 38.9531H197.328V46.2539H198.395V43.0137H200.227V42.125H198.395V38.9531ZM188.906 45.3926L189.357 46.2676C192.898 45.2217 195.079 42.9521 195.086 39.8555H189.439V40.7441H193.931C193.712 42.8564 191.839 44.5449 188.906 45.3926ZM190.574 48.7285C190.567 50.2051 192.133 51.0801 194.553 51.0801C196.993 51.0801 198.531 50.2051 198.531 48.7285C198.531 47.2725 196.993 46.3838 194.553 46.3906C192.133 46.3838 190.567 47.2725 190.574 48.7285ZM191.641 48.7285C191.627 47.8125 192.769 47.2451 194.553 47.252C196.337 47.2451 197.492 47.8125 197.492 48.7285C197.492 49.6445 196.337 50.2256 194.553 50.2188C192.769 50.2256 191.627 49.6445 191.641 48.7285ZM205.312 42.2207V40.0059H204.246V42.2207C204.232 44.5244 202.735 46.8486 200.924 47.6758L201.607 48.5781C203.029 47.8604 204.226 46.3223 204.786 44.4902C205.367 46.2197 206.563 47.6621 207.951 48.332L208.607 47.4844C206.816 46.6709 205.306 44.4424 205.312 42.2207ZM209.934 51.1348H211.014V38.9531H209.934V51.1348ZM222.594 38.9531H221.514V47.8535H222.594V43.5605H224.426V42.6582H222.594V38.9531ZM213.105 45.584L213.57 46.4453C217.077 45.3516 219.312 43.0273 219.312 39.8965H213.611V40.7988H218.144C217.918 42.9453 216.024 44.6748 213.105 45.584ZM214.979 50.8477H223.154V49.9453H216.045V46.9512H214.979V50.8477Z" fill="#868686"/>
<path d="M367.249 38.9531H366.183V51.1074H367.249V44.8047H369.218V43.9023H367.249V38.9531ZM357.925 47.9492L358.526 48.7969C362.484 46.8418 364.098 43.7041 364.104 40.2656H358.485V41.168H363.018C362.771 44.0459 361.062 46.3906 357.925 47.9492ZM376.354 39.7871H370.749V40.6621H375.199C374.98 42.7402 373.101 44.3672 370.134 45.1875L370.558 46.0488C373.183 45.3311 375.09 43.9434 375.91 42.0293H378.938V43.7109H375.712V44.5996H378.938V46.2129H380.019V38.9668H378.938V41.1406H376.204C376.3 40.71 376.354 40.2588 376.354 39.7871ZM371.843 47.6074H378.938V51.0938H380.019V46.7461H371.843V47.6074ZM392.433 38.9531H391.407V43.8477H389.616V39.2266H388.632V50.4785H389.616V44.7363H391.407V51.1074H392.433V38.9531ZM382.493 48.0996H383.272C385.139 48.0928 386.376 48.0449 387.839 47.7441L387.743 46.8418C386.39 47.1152 385.234 47.1768 383.56 47.1836V41.332H387.046V40.4434H382.493V48.0996Z" fill="#868686"/>
<path d="M10.2949 38.9531H9.22852V46.2539H10.2949V43.0137H12.127V42.125H10.2949V38.9531ZM0.806641 45.3926L1.25781 46.2676C4.79883 45.2217 6.97949 42.9521 6.98633 39.8555H1.33984V40.7441H5.83105C5.6123 42.8564 3.73926 44.5449 0.806641 45.3926ZM2.47461 48.7285C2.46777 50.2051 4.0332 51.0801 6.45312 51.0801C8.89355 51.0801 10.4316 50.2051 10.4316 48.7285C10.4316 47.2725 8.89355 46.3838 6.45312 46.3906C4.0332 46.3838 2.46777 47.2725 2.47461 48.7285ZM3.54102 48.7285C3.52734 47.8125 4.66895 47.2451 6.45312 47.252C8.2373 47.2451 9.39258 47.8125 9.39258 48.7285C9.39258 49.6445 8.2373 50.2256 6.45312 50.2188C4.66895 50.2256 3.52734 49.6445 3.54102 48.7285ZM16.8711 39.8418C14.9502 39.8486 13.583 41.0107 13.5898 42.6992C13.583 44.3945 14.9502 45.5498 16.8711 45.5566C18.7783 45.5498 20.1318 44.3945 20.1387 42.6992C20.1318 41.0107 18.7783 39.8486 16.8711 39.8418ZM12.9609 47.5391L13.1113 48.4551C15.2988 48.4551 18.2861 48.4414 21.0684 47.9219L20.9863 47.1289C18.2998 47.5254 15.2031 47.5459 12.9609 47.5391ZM14.6426 42.6992C14.6357 41.5713 15.5723 40.7852 16.8711 40.7852C18.1562 40.7852 19.0928 41.5713 19.0859 42.6992C19.0928 43.834 18.1562 44.6133 16.8711 44.6133C15.5723 44.6133 14.6357 43.834 14.6426 42.6992ZM21.793 51.1348H22.8594V38.9531H21.793V51.1348ZM36.0664 45.3926H24.9785V46.2539H36.0664V45.3926ZM26.2227 48.3047H33.5371V51.1074H34.6309V47.4434H26.2227V48.3047ZM26.4551 44.2168H34.7539V43.3828H27.5352V42.1387H34.3574V41.3047H27.5352V40.1426H34.6855V39.2812H26.4551V44.2168ZM41.2754 40.8672V39.6504H40.209V40.9082C40.1953 42.7949 38.9512 44.4082 37.0781 45.0645L37.666 45.9395C39.1357 45.3857 40.2432 44.2578 40.7627 42.8018C41.2891 44.0801 42.3418 45.0713 43.6816 45.5703L44.2832 44.7363C42.499 44.1279 41.2617 42.6035 41.2754 40.8672ZM39.0605 48.8105C39.0537 50.2598 40.6055 51.0801 43.1348 51.0801C45.6572 51.0801 47.209 50.2598 47.209 48.8105C47.209 47.3477 45.6572 46.5068 43.1348 46.5137C40.6055 46.5068 39.0537 47.3477 39.0605 48.8105ZM40.127 48.8105C40.1201 47.9014 41.2686 47.3613 43.1348 47.3613C44.9941 47.3613 46.1426 47.9014 46.1426 48.8105C46.1426 49.6924 44.9941 50.2256 43.1348 50.2188C41.2686 50.2256 40.1201 49.6924 40.127 48.8105ZM43.3809 42.4531H46.0879V46.1582H47.168V38.9531H46.0879V41.5645H43.3809V42.4531Z" fill="#585858"/>
<circle cx="24" cy="16" r="16" fill="#4579FF"/>
<circle cx="200" cy="16" r="16" fill="#D3D3D3"/>
<circle cx="376" cy="16" r="16" fill="#D3D3D3"/>
<path d="M197.006 20H203.076V18.5469H199.455V18.5L200.744 17.2461C202.49 15.6641 202.959 14.873 202.959 13.9062C202.959 12.4355 201.752 11.3984 199.936 11.3984C198.148 11.3984 196.918 12.459 196.924 14.1172H198.6C198.594 13.3027 199.115 12.7988 199.912 12.8047C200.691 12.7988 201.26 13.2676 201.26 14.0234C201.26 14.6973 200.832 15.166 200.041 15.9219L196.994 18.7227L197.006 20Z" fill="white"/>
<path d="M375.977 20.1172C377.893 20.1172 379.27 19.0742 379.258 17.6211C379.27 16.5605 378.584 15.8047 377.336 15.6523V15.582C378.285 15.4121 378.947 14.7383 378.941 13.7891C378.947 12.4473 377.77 11.3984 376 11.3984C374.26 11.3984 372.947 12.4121 372.918 13.8711H374.605C374.635 13.2207 375.25 12.7988 376 12.8047C376.75 12.7988 377.248 13.2441 377.242 13.8945C377.248 14.5625 376.662 15.0195 375.824 15.0195H375.039V16.3203H375.824C376.82 16.3262 377.436 16.8125 377.43 17.5039C377.436 18.1895 376.832 18.6582 375.988 18.6641C375.168 18.6582 374.553 18.2422 374.523 17.6094H372.742C372.777 19.0918 374.113 20.1172 375.977 20.1172Z" fill="white"/>
<path d="M25.5117 11.5156H23.8477L21.75 12.8516V14.4102L23.6953 13.1914H23.7422V20H25.5117V11.5156Z" fill="white"/>
</svg>
