<svg width="394" height="53" viewBox="0 0 394 53" fill="none" xmlns="http://www.w3.org/2000/svg">
<rect x="24" y="10" width="352" height="12" rx="6" fill="#4579FF"/>
<rect x="24" y="10" width="175.544" height="12" rx="6" fill="#4579FF"/>
<path d="M186.279 38.9682V43.087H188.096V43.9959H186.279V48.2693H185.205V38.9682H186.279ZM184.509 45.9489C183.362 46.1552 182.162 46.2905 180.908 46.355C179.657 46.4194 178.325 46.4517 176.91 46.4517L176.784 45.5622H177.234C178.233 45.5622 179.153 45.5477 179.994 45.5186V44.2859C179.495 44.2311 179.055 44.099 178.674 43.8895C178.297 43.6768 178.004 43.4029 177.795 43.0677C177.588 42.7293 177.487 42.349 177.49 41.9268C177.487 41.453 177.611 41.0357 177.862 40.6747C178.117 40.3105 178.471 40.0285 178.926 39.8287C179.383 39.6289 179.907 39.529 180.497 39.529C181.083 39.529 181.606 39.6289 182.063 39.8287C182.521 40.0285 182.877 40.3105 183.132 40.6747C183.389 41.0357 183.52 41.453 183.523 41.9268C183.52 42.3425 183.415 42.718 183.209 43.0532C183.006 43.3851 182.719 43.6575 182.348 43.8702C181.981 44.0829 181.554 44.2198 181.067 44.2811V45.4703C182.331 45.3994 183.449 45.2914 184.422 45.1464L184.509 45.9489ZM178.496 41.9268C178.492 42.233 178.574 42.5037 178.742 42.739C178.913 42.9742 179.15 43.1579 179.453 43.2901C179.759 43.4222 180.107 43.4899 180.497 43.4931C180.89 43.4899 181.238 43.4222 181.541 43.2901C181.844 43.1579 182.079 42.9742 182.247 42.739C182.418 42.5037 182.505 42.233 182.508 41.9268C182.505 41.6174 182.418 41.3451 182.247 41.1098C182.079 40.8713 181.844 40.6876 181.541 40.5587C181.238 40.4266 180.89 40.3605 180.497 40.3605C180.107 40.3605 179.759 40.4266 179.453 40.5587C179.15 40.6876 178.913 40.8713 178.742 41.1098C178.574 41.3451 178.492 41.6174 178.496 41.9268ZM178.563 47.4572H179.636V49.9323H186.723V50.8315H178.563V47.4572ZM198.398 38.9586V42.1202H200.225V43.0097H198.398V46.2486H197.324V38.9586H198.398ZM195.081 39.8577C195.081 40.8762 194.851 41.8059 194.39 42.6471C193.932 43.4883 193.275 44.215 192.418 44.8273C191.564 45.4365 190.544 45.9167 189.358 46.268L188.913 45.3978C189.889 45.1142 190.74 44.7436 191.465 44.2859C192.19 43.825 192.764 43.2949 193.186 42.6954C193.608 42.096 193.855 41.4466 193.926 40.7472H189.445V39.8577H195.081ZM194.559 46.384C195.368 46.384 196.071 46.4791 196.667 46.6692C197.266 46.8561 197.727 47.1268 198.05 47.4814C198.372 47.8326 198.533 48.25 198.533 48.7334C198.533 49.2169 198.372 49.6358 198.05 49.9903C197.727 50.3448 197.266 50.6156 196.667 50.8025C196.071 50.9894 195.368 51.0829 194.559 51.0829C193.754 51.0829 193.049 50.9878 192.447 50.7977C191.847 50.6107 191.385 50.3416 191.059 49.9903C190.734 49.6358 190.573 49.2169 190.576 48.7334C190.573 48.2532 190.734 47.8359 191.059 47.4814C191.385 47.1268 191.847 46.8561 192.447 46.6692C193.049 46.4791 193.754 46.384 194.559 46.384ZM194.559 50.2224C195.149 50.2224 195.665 50.1611 196.106 50.0387C196.548 49.9162 196.888 49.7438 197.126 49.5214C197.368 49.2958 197.489 49.0331 197.489 48.7334C197.489 48.4305 197.368 48.1678 197.126 47.9454C196.888 47.7198 196.548 47.5474 196.106 47.4282C195.665 47.3089 195.149 47.2509 194.559 47.2541C193.966 47.2509 193.449 47.3089 193.007 47.4282C192.569 47.5474 192.231 47.7198 191.992 47.9454C191.754 48.1678 191.636 48.4305 191.639 48.7334C191.636 49.0331 191.754 49.2958 191.992 49.5214C192.231 49.7438 192.571 49.9162 193.012 50.0387C193.454 50.1611 193.969 50.2224 194.559 50.2224ZM209.936 51.1312V38.9586H211.01V51.1312H209.936ZM205.315 42.2265C205.312 42.9452 205.458 43.6591 205.755 44.3681C206.051 45.0771 206.451 45.7072 206.954 46.2583C207.46 46.8062 208.009 47.2155 208.602 47.4862L207.945 48.337C207.487 48.1114 207.054 47.8085 206.644 47.4282C206.235 47.0447 205.871 46.6015 205.552 46.0988C205.233 45.596 204.978 45.0594 204.788 44.489C204.601 45.0948 204.348 45.6653 204.029 46.2003C203.713 46.732 203.347 47.2026 202.932 47.6119C202.516 48.0212 202.073 48.3435 201.602 48.5787L200.925 47.6796C201.525 47.4024 202.078 46.9802 202.584 46.413C203.09 45.8425 203.491 45.1899 203.787 44.4551C204.087 43.7203 204.238 42.9774 204.242 42.2265V40.0124H205.315V42.2265ZM222.597 38.9586V42.6519H224.424V43.5608H222.597V47.8536H221.514V38.9586H222.597ZM219.31 39.8964C219.31 40.9245 219.078 41.8672 218.613 42.7244C218.149 43.5785 217.487 44.3198 216.627 44.9482C215.769 45.5767 214.752 46.0746 213.576 46.442L213.112 45.5815C214.085 45.2785 214.936 44.8902 215.665 44.4164C216.393 43.9395 216.97 43.3948 217.395 42.7825C217.821 42.1669 218.07 41.5046 218.144 40.7956H213.615V39.8964H219.31ZM214.978 46.9448H216.051V49.9517H223.148V50.8412H214.978V46.9448Z" fill="#585858"/>
<path d="M367.249 38.9531H366.183V51.1074H367.249V44.8047H369.218V43.9023H367.249V38.9531ZM357.925 47.9492L358.526 48.7969C362.484 46.8418 364.098 43.7041 364.104 40.2656H358.485V41.168H363.018C362.771 44.0459 361.062 46.3906 357.925 47.9492ZM376.354 39.7871H370.749V40.6621H375.199C374.98 42.7402 373.101 44.3672 370.134 45.1875L370.558 46.0488C373.183 45.3311 375.09 43.9434 375.91 42.0293H378.938V43.7109H375.712V44.5996H378.938V46.2129H380.019V38.9668H378.938V41.1406H376.204C376.3 40.71 376.354 40.2588 376.354 39.7871ZM371.843 47.6074H378.938V51.0938H380.019V46.7461H371.843V47.6074ZM392.433 38.9531H391.407V43.8477H389.616V39.2266H388.632V50.4785H389.616V44.7363H391.407V51.1074H392.433V38.9531ZM382.493 48.0996H383.272C385.139 48.0928 386.376 48.0449 387.839 47.7441L387.743 46.8418C386.39 47.1152 385.234 47.1768 383.56 47.1836V41.332H387.046V40.4434H382.493V48.0996Z" fill="#585858"/>
<path d="M10.2949 38.9531H9.22852V46.2539H10.2949V43.0137H12.127V42.125H10.2949V38.9531ZM0.806641 45.3926L1.25781 46.2676C4.79883 45.2217 6.97949 42.9521 6.98633 39.8555H1.33984V40.7441H5.83105C5.6123 42.8564 3.73926 44.5449 0.806641 45.3926ZM2.47461 48.7285C2.46777 50.2051 4.0332 51.0801 6.45312 51.0801C8.89355 51.0801 10.4316 50.2051 10.4316 48.7285C10.4316 47.2725 8.89355 46.3838 6.45312 46.3906C4.0332 46.3838 2.46777 47.2725 2.47461 48.7285ZM3.54102 48.7285C3.52734 47.8125 4.66895 47.2451 6.45312 47.252C8.2373 47.2451 9.39258 47.8125 9.39258 48.7285C9.39258 49.6445 8.2373 50.2256 6.45312 50.2188C4.66895 50.2256 3.52734 49.6445 3.54102 48.7285ZM16.8711 39.8418C14.9502 39.8486 13.583 41.0107 13.5898 42.6992C13.583 44.3945 14.9502 45.5498 16.8711 45.5566C18.7783 45.5498 20.1318 44.3945 20.1387 42.6992C20.1318 41.0107 18.7783 39.8486 16.8711 39.8418ZM12.9609 47.5391L13.1113 48.4551C15.2988 48.4551 18.2861 48.4414 21.0684 47.9219L20.9863 47.1289C18.2998 47.5254 15.2031 47.5459 12.9609 47.5391ZM14.6426 42.6992C14.6357 41.5713 15.5723 40.7852 16.8711 40.7852C18.1562 40.7852 19.0928 41.5713 19.0859 42.6992C19.0928 43.834 18.1562 44.6133 16.8711 44.6133C15.5723 44.6133 14.6357 43.834 14.6426 42.6992ZM21.793 51.1348H22.8594V38.9531H21.793V51.1348ZM36.0664 45.3926H24.9785V46.2539H36.0664V45.3926ZM26.2227 48.3047H33.5371V51.1074H34.6309V47.4434H26.2227V48.3047ZM26.4551 44.2168H34.7539V43.3828H27.5352V42.1387H34.3574V41.3047H27.5352V40.1426H34.6855V39.2812H26.4551V44.2168ZM41.2754 40.8672V39.6504H40.209V40.9082C40.1953 42.7949 38.9512 44.4082 37.0781 45.0645L37.666 45.9395C39.1357 45.3857 40.2432 44.2578 40.7627 42.8018C41.2891 44.0801 42.3418 45.0713 43.6816 45.5703L44.2832 44.7363C42.499 44.1279 41.2617 42.6035 41.2754 40.8672ZM39.0605 48.8105C39.0537 50.2598 40.6055 51.0801 43.1348 51.0801C45.6572 51.0801 47.209 50.2598 47.209 48.8105C47.209 47.3477 45.6572 46.5068 43.1348 46.5137C40.6055 46.5068 39.0537 47.3477 39.0605 48.8105ZM40.127 48.8105C40.1201 47.9014 41.2686 47.3613 43.1348 47.3613C44.9941 47.3613 46.1426 47.9014 46.1426 48.8105C46.1426 49.6924 44.9941 50.2256 43.1348 50.2188C41.2686 50.2256 40.1201 49.6924 40.127 48.8105ZM43.3809 42.4531H46.0879V46.1582H47.168V38.9531H46.0879V41.5645H43.3809V42.4531Z" fill="#585858"/>
<circle cx="24" cy="16" r="16" fill="#4579FF"/>
<circle cx="200" cy="16" r="16" fill="#4579FF"/>
<circle cx="376" cy="16" r="16" fill="#4579FF"/>
<path d="M197.006 20H203.076V18.5469H199.455V18.5L200.744 17.2461C202.49 15.6641 202.959 14.873 202.959 13.9062C202.959 12.4355 201.752 11.3984 199.936 11.3984C198.148 11.3984 196.918 12.459 196.924 14.1172H198.6C198.594 13.3027 199.115 12.7988 199.912 12.8047C200.691 12.7988 201.26 13.2676 201.26 14.0234C201.26 14.6973 200.832 15.166 200.041 15.9219L196.994 18.7227L197.006 20Z" fill="white"/>
<path d="M375.977 20.1172C377.893 20.1172 379.27 19.0742 379.258 17.6211C379.27 16.5605 378.584 15.8047 377.336 15.6523V15.582C378.285 15.4121 378.947 14.7383 378.941 13.7891C378.947 12.4473 377.77 11.3984 376 11.3984C374.26 11.3984 372.947 12.4121 372.918 13.8711H374.605C374.635 13.2207 375.25 12.7988 376 12.8047C376.75 12.7988 377.248 13.2441 377.242 13.8945C377.248 14.5625 376.662 15.0195 375.824 15.0195H375.039V16.3203H375.824C376.82 16.3262 377.436 16.8125 377.43 17.5039C377.436 18.1895 376.832 18.6582 375.988 18.6641C375.168 18.6582 374.553 18.2422 374.523 17.6094H372.742C372.777 19.0918 374.113 20.1172 375.977 20.1172Z" fill="white"/>
<path d="M25.5117 11.5156H23.8477L21.75 12.8516V14.4102L23.6953 13.1914H23.7422V20H25.5117V11.5156Z" fill="white"/>
</svg>
