<svg width="353" height="47" viewBox="0 0 353 47" fill="none" xmlns="http://www.w3.org/2000/svg">
<path d="M20.8643 14.5604C20.8643 11.5794 23.2808 9.16286 26.2618 9.16286H332.12C335.101 9.16286 337.518 11.5794 337.518 14.5604C337.518 17.5413 335.101 19.9579 332.12 19.9579H26.2618C23.2808 19.9579 20.8643 17.5413 20.8643 14.5604Z" fill="#D3D3D3"/>
<path d="M20.8643 14.5604C20.8643 11.5794 23.2808 9.16286 26.2618 9.16286H173.384C176.365 9.16286 178.781 11.5794 178.781 14.5604C178.781 17.5413 176.365 19.9579 173.384 19.9579H26.2618C23.2808 19.9579 20.8643 17.5413 20.8643 14.5604Z" fill="#D3D3D3"/>
<path d="M161.647 35.7252C160.048 35.7252 158.935 36.5861 158.941 37.8898C158.935 39.0398 159.839 39.8576 161.192 40.0052V41.1121C160.147 41.149 159.15 41.1552 158.302 41.149L158.425 41.9485C160.313 41.9546 162.932 41.9177 165.251 41.5057L165.177 40.7801C164.224 40.9215 163.184 41.0137 162.164 41.0691V39.9991C163.48 39.833 164.359 39.0213 164.365 37.8898C164.359 36.5861 163.246 35.7252 161.647 35.7252ZM159.851 37.8898C159.839 37.0412 160.583 36.4754 161.647 36.4754C162.717 36.4754 163.449 37.0412 163.455 37.8898C163.449 38.72 162.717 39.2857 161.647 39.2919C160.583 39.2857 159.839 38.72 159.851 37.8898ZM159.901 45.8964H167.243V45.0847H160.872V42.8586H159.901V45.8964ZM165.878 43.5842H166.85V39.7469H168.485V38.9229H166.85V35.2209H165.878V43.5842Z" fill="#868686"/>
<path d="M177.746 35.2086H176.787V41.7763H177.746V38.8614H179.395V38.062H177.746V35.2086ZM169.211 41.0014L169.617 41.7886C172.802 40.8477 174.764 38.8061 174.77 36.0204H169.691V36.8198H173.731C173.534 38.72 171.849 40.2389 169.211 41.0014ZM170.711 44.0024C170.705 45.3307 172.114 46.1178 174.29 46.1178C176.486 46.1178 177.869 45.3307 177.869 44.0024C177.869 42.6926 176.486 41.8931 174.29 41.8993C172.114 41.8931 170.705 42.6926 170.711 44.0024ZM171.671 44.0024C171.658 43.1784 172.685 42.668 174.29 42.6741C175.895 42.668 176.935 43.1784 176.935 44.0024C176.935 44.8264 175.895 45.3491 174.29 45.343C172.685 45.3491 171.658 44.8264 171.671 44.0024Z" fill="#868686"/>
<path d="M183.97 38.1481V36.1556H183.01V38.1481C182.998 40.2205 181.651 42.3113 180.022 43.0554L180.637 43.8671C181.916 43.2214 182.992 41.8378 183.496 40.1897C184.019 41.7455 185.095 43.0431 186.343 43.6457L186.934 42.8832C185.323 42.1514 183.964 40.1467 183.97 38.1481ZM188.127 46.167H189.098V35.2086H188.127V46.167Z" fill="#868686"/>
<path d="M199.516 35.2086H198.544V43.2153H199.516V39.3534H201.164V38.5416H199.516V35.2086ZM190.98 41.1736L191.398 41.9485C194.553 40.9645 196.564 38.8737 196.564 36.0572H191.435V36.869H195.512C195.309 38.7999 193.606 40.3557 190.98 41.1736ZM192.665 45.9087H200.02V45.097H193.624V42.4035H192.665V45.9087Z" fill="#868686"/>
<path d="M329.646 35.2086H328.686V46.1424H329.646V40.4726H331.417V39.6609H329.646V35.2086ZM321.258 43.3014L321.799 44.0639C325.36 42.3051 326.811 39.4825 326.817 36.3893H321.762V37.2011H325.839C325.618 39.79 324.08 41.8993 321.258 43.3014Z" fill="#868686"/>
<path d="M337.837 35.9589H332.794V36.746H336.798C336.601 38.6154 334.91 40.079 332.241 40.817L332.622 41.5918C334.983 40.9461 336.699 39.6978 337.437 37.9759H340.161V39.4887H337.259V40.2881H340.161V41.7394H341.133V35.2209H340.161V37.1765H337.702C337.788 36.789 337.837 36.3832 337.837 35.9589ZM333.778 42.9939H340.161V46.1301H341.133V42.219H333.778V42.9939Z" fill="#868686"/>
<path d="M352.3 35.2086H351.378V39.6117H349.767V35.4546H348.881V45.5767H349.767V40.4111H351.378V46.1424H352.3V35.2086ZM343.359 43.4366H344.06C345.739 43.4305 346.852 43.3875 348.168 43.1169L348.082 42.3051C346.864 42.5511 345.825 42.6065 344.318 42.6126V37.3486H347.455V36.5492H343.359V43.4366Z" fill="#868686"/>
<path d="M8.5355 35.2086H7.57618V41.7763H8.5355V38.8614H10.1836V38.062H8.5355V35.2086ZM0 41.0014L0.405867 41.7886C3.59131 40.8477 5.553 38.8061 5.55915 36.0204H0.479661V36.8198H4.51988C4.3231 38.72 2.63813 40.2389 0 41.0014ZM1.50048 44.0024C1.49433 45.3307 2.90256 46.1178 5.07948 46.1178C7.27486 46.1178 8.65849 45.3307 8.65849 44.0024C8.65849 42.6926 7.27486 41.8931 5.07948 41.8993C2.90256 41.8931 1.49433 42.6926 1.50048 44.0024ZM2.4598 44.0024C2.4475 43.1784 3.47447 42.668 5.07948 42.6741C6.6845 42.668 7.72377 43.1784 7.72377 44.0024C7.72377 44.8264 6.6845 45.3491 5.07948 45.343C3.47447 45.3491 2.4475 44.8264 2.4598 44.0024Z" fill="#585858"/>
<path d="M14.4513 36.0081C12.7233 36.0142 11.4934 37.0596 11.4996 38.5785C11.4934 40.1036 12.7233 41.1429 14.4513 41.149C16.167 41.1429 17.3846 40.1036 17.3908 38.5785C17.3846 37.0596 16.167 36.0142 14.4513 36.0081ZM10.9338 42.9324L11.0691 43.7564C13.0369 43.7564 15.7243 43.7441 18.2271 43.2768L18.1533 42.5634C15.7366 42.9201 12.9508 42.9385 10.9338 42.9324ZM12.4466 38.5785C12.4404 37.5639 13.2829 36.8567 14.4513 36.8567C15.6074 36.8567 16.4499 37.5639 16.4438 38.5785C16.4499 39.5994 15.6074 40.3004 14.4513 40.3004C13.2829 40.3004 12.4404 39.5994 12.4466 38.5785ZM18.879 46.167H19.8383V35.2086H18.879V46.167Z" fill="#585858"/>
<path d="M31.7191 41.0014H21.7446V41.7763H31.7191V41.0014ZM22.8638 43.6211H29.4438V46.1424H30.4277V42.8463H22.8638V43.6211ZM23.0729 39.9437H30.5384V39.1935H24.0445V38.0743H30.1817V37.324H24.0445V36.2786H30.4769V35.5038H23.0729V39.9437Z" fill="#585858"/>
<path d="M36.405 36.9305V35.8359H35.4457V36.9674C35.4334 38.6646 34.3142 40.1159 32.6292 40.7063L33.1581 41.4934C34.4802 40.9953 35.4765 39.9806 35.9438 38.6708C36.4173 39.8207 37.3643 40.7124 38.5696 41.1613L39.1108 40.4111C37.5058 39.8638 36.3927 38.4924 36.405 36.9305ZM34.4126 44.0762C34.4064 45.3799 35.8024 46.1178 38.0777 46.1178C40.3469 46.1178 41.7428 45.3799 41.7428 44.0762C41.7428 42.7602 40.3469 42.0038 38.0777 42.01C35.8024 42.0038 34.4064 42.7602 34.4126 44.0762ZM35.3719 44.0762C35.3658 43.2583 36.3989 42.7725 38.0777 42.7725C39.7504 42.7725 40.7835 43.2583 40.7835 44.0762C40.7835 44.8695 39.7504 45.3491 38.0777 45.343C36.3989 45.3491 35.3658 44.8695 35.3719 44.0762ZM38.2991 38.3572H40.7343V41.6902H41.7059V35.2086H40.7343V37.5577H38.2991V38.3572Z" fill="#585858"/>
<path d="M35.2584 14.5604C35.2584 22.5096 28.8142 28.9537 20.865 28.9537C12.9158 28.9537 6.47168 22.5096 6.47168 14.5604C6.47168 6.61114 12.9158 0.167023 20.865 0.167023C28.8142 0.167023 35.2584 6.61114 35.2584 14.5604Z" fill="#4579FF"/>
<path d="M193.585 14.5604C193.585 22.5096 187.14 28.9537 179.191 28.9537C171.242 28.9537 164.798 22.5096 164.798 14.5604C164.798 6.61114 171.242 0.167023 179.191 0.167023C187.14 0.167023 193.585 6.61114 193.585 14.5604Z" fill="#D3D3D3"/>
<path d="M351.912 14.5604C351.912 22.5096 345.468 28.9537 337.518 28.9537C329.569 28.9537 323.125 22.5096 323.125 14.5604C323.125 6.61114 329.569 0.167023 337.518 0.167023C345.468 0.167023 351.912 6.61114 351.912 14.5604Z" fill="#D3D3D3"/>
<path d="M176.498 18.1587H181.958V16.8515H178.701V16.8093L179.861 15.6813C181.431 14.2582 181.853 13.5466 181.853 12.6769C181.853 11.3538 180.767 10.4209 179.133 10.4209C177.525 10.4209 176.419 11.3749 176.424 12.8666H177.931C177.926 12.1339 178.395 11.6806 179.112 11.6859C179.813 11.6806 180.324 12.1023 180.324 12.7823C180.324 13.3884 179.94 13.8101 179.228 14.4901L176.487 17.0096L176.498 18.1587Z" fill="white"/>
<path d="M337.497 18.2641C339.22 18.2641 340.459 17.3259 340.448 16.0187C340.459 15.0646 339.842 14.3847 338.719 14.2476V14.1844C339.573 14.0315 340.169 13.4253 340.164 12.5714C340.169 11.3644 339.109 10.4209 337.518 10.4209C335.952 10.4209 334.771 11.3328 334.745 12.6452H336.263C336.289 12.0601 336.843 11.6806 337.518 11.6859C338.192 11.6806 338.64 12.0812 338.635 12.6663C338.64 13.2672 338.113 13.6783 337.359 13.6783H336.653V14.8485H337.359C338.256 14.8538 338.809 15.2913 338.804 15.9132C338.809 16.53 338.266 16.9516 337.507 16.9569C336.769 16.9516 336.216 16.5774 336.189 16.0081H334.587C334.619 17.3417 335.82 18.2641 337.497 18.2641Z" fill="white"/>
<path d="M22.2238 10.5263H20.7269L18.8398 11.7281V13.1302L20.5898 12.0338H20.632V18.1587H22.2238V10.5263Z" fill="white"/>
</svg>
