<svg width="352" height="46" viewBox="0 0 352 46" fill="none" xmlns="http://www.w3.org/2000/svg">
<rect x="24" y="10" width="317" height="10.8068" rx="5.40341" fill="#D3D3D3"/>
<path d="M24 14.8608C24 12.1763 26.1744 10 28.8567 10H304.068C306.751 10 308.925 12.1763 308.925 14.8608V14.8608C308.925 17.5454 306.751 19.7216 304.068 19.7216H28.8567C26.1744 19.7216 24 17.5454 24 14.8608V14.8608Z" fill="#D3D3D3"/>
<rect x="24" y="10" width="158.09" height="10.8068" rx="5.40341" fill="#4579FF"/>
<path d="M24 14.8608C24 12.1763 26.1744 10 28.8567 10H161.237C163.919 10 166.094 12.1763 166.094 14.8608V14.8608C166.094 17.5454 163.919 19.7216 161.237 19.7216H28.8567C26.1744 19.7216 24 17.5454 24 14.8608V14.8608Z" fill="#4579FF"/>
<path d="M161.509 35.5582C159.912 35.5582 158.8 36.4191 158.806 37.7228C158.8 38.8728 159.703 39.6906 161.055 39.8382V40.9451C160.01 40.982 159.015 40.9882 158.167 40.982L158.29 41.7815C160.176 41.7876 162.794 41.7507 165.11 41.3387L165.036 40.6131C164.084 40.7545 163.046 40.8468 162.026 40.9021V39.8321C163.34 39.666 164.219 38.8543 164.225 37.7228C164.219 36.4191 163.107 35.5582 161.509 35.5582ZM159.715 37.7228C159.703 36.8742 160.447 36.3084 161.509 36.3084C162.579 36.3084 163.31 36.8742 163.316 37.7228C163.31 38.553 162.579 39.1187 161.509 39.1249C160.447 39.1187 159.703 38.553 159.715 37.7228ZM159.764 45.7295H167.101V44.9177H160.735V42.6916H159.764V45.7295ZM165.737 43.4172H166.708V39.58H168.342V38.7559H166.708V35.0539H165.737V43.4172Z" fill="#585858"/>
<path d="M177.595 35.0416H176.637V41.6093H177.595V38.6944H179.242V37.895H177.595V35.0416ZM169.067 40.8345L169.472 41.6216C172.655 40.6807 174.615 38.6391 174.621 35.8534H169.546V36.6528H173.583C173.386 38.553 171.703 40.0719 169.067 40.8345ZM170.566 43.8354C170.56 45.1637 171.967 45.9508 174.142 45.9508C176.336 45.9508 177.718 45.1637 177.718 43.8354C177.718 42.5256 176.336 41.7261 174.142 41.7323C171.967 41.7261 170.56 42.5256 170.566 43.8354ZM171.525 43.8354C171.512 43.0114 172.538 42.501 174.142 42.5071C175.746 42.501 176.784 43.0114 176.784 43.8354C176.784 44.6594 175.746 45.1821 174.142 45.176C172.538 45.1821 171.512 44.6594 171.525 43.8354Z" fill="#585858"/>
<path d="M183.813 37.9811V35.9886H182.855V37.9811C182.842 40.0535 181.497 42.1443 179.869 42.8884L180.483 43.7001C181.761 43.0544 182.836 41.6708 183.34 40.0227C183.862 41.5785 184.938 42.8761 186.185 43.4787L186.775 42.7162C185.165 41.9844 183.807 39.9797 183.813 37.9811ZM187.967 46H188.937V35.0416H187.967V46Z" fill="#585858"/>
<path d="M199.346 35.0416H198.375V43.0483H199.346V39.1864H200.992V38.3747H199.346V35.0416ZM190.818 41.0066L191.235 41.7815C194.387 40.7976 196.397 38.7067 196.397 35.8903H191.272V36.702H195.346C195.143 38.6329 193.441 40.1888 190.818 41.0066ZM192.501 45.7418H199.85V44.93H193.46V42.2365H192.501V45.7418Z" fill="#585858"/>
<path d="M329.364 35.0416H328.406V45.9754H329.364V40.3056H331.134V39.4939H329.364V35.0416ZM320.983 43.1344L321.524 43.8969C325.082 42.1381 326.532 39.3155 326.538 36.2223H321.487V37.0341H325.561C325.34 39.623 323.804 41.7323 320.983 43.1344Z" fill="#868686"/>
<path d="M337.548 35.7919H332.51V36.579H336.51C336.313 38.4484 334.624 39.912 331.957 40.65L332.338 41.4248C334.697 40.7791 336.412 39.5308 337.149 37.8089H339.871V39.3217H336.971V40.1211H339.871V41.5724H340.842V35.0539H339.871V37.0095H337.413C337.499 36.622 337.548 36.2162 337.548 35.7919ZM333.493 42.8269H339.871V45.9631H340.842V42.0521H333.493V42.8269Z" fill="#868686"/>
<path d="M352 35.0416H351.078V39.4447H349.468V35.2876H348.583V45.4097H349.468V40.2441H351.078V45.9754H352V35.0416ZM343.066 43.2697H343.766C345.444 43.2635 346.556 43.2205 347.871 42.9499L347.785 42.1381C346.568 42.3841 345.53 42.4395 344.024 42.4456V37.1817H347.158V36.3822H343.066V43.2697Z" fill="#868686"/>
<path d="M8.52823 35.0416H7.56972V41.6093H8.52823V38.6944H10.1749V37.895H8.52823V35.0416ZM0 40.8345L0.405521 41.6216C3.58825 40.6807 5.54826 38.6391 5.55441 35.8534H0.479252V36.6528H4.51603C4.31941 38.553 2.63589 40.0719 0 40.8345ZM1.4992 43.8354C1.49305 45.1637 2.90009 45.9508 5.07516 45.9508C7.26865 45.9508 8.65111 45.1637 8.65111 43.8354C8.65111 42.5256 7.26865 41.7261 5.07516 41.7323C2.90009 41.7261 1.49305 42.5256 1.4992 43.8354ZM2.4577 43.8354C2.44541 43.0114 3.4715 42.501 5.07516 42.5071C6.67881 42.501 7.71719 43.0114 7.71719 43.8354C7.71719 44.6594 6.67881 45.1821 5.07516 45.176C3.4715 45.1821 2.44541 44.6594 2.4577 43.8354Z" fill="#868686"/>
<path d="M14.439 35.8411C12.7125 35.8472 11.4836 36.8926 11.4898 38.4116C11.4836 39.9366 12.7125 40.9759 14.439 40.982C16.1532 40.9759 17.3698 39.9366 17.376 38.4116C17.3698 36.8926 16.1532 35.8472 14.439 35.8411ZM10.9245 42.7654L11.0597 43.5894C13.0258 43.5894 15.7109 43.5771 18.2116 43.1098L18.1378 42.3964C15.7231 42.7531 12.9398 42.7715 10.9245 42.7654ZM12.436 38.4116C12.4298 37.3969 13.2716 36.6897 14.439 36.6897C15.5941 36.6897 16.4359 37.3969 16.4297 38.4116C16.4359 39.4324 15.5941 40.1334 14.439 40.1334C13.2716 40.1334 12.4298 39.4324 12.436 38.4116ZM18.8629 46H19.8214V35.0416H18.8629V46Z" fill="#868686"/>
<path d="M31.6921 40.8345H21.7261V41.6093H31.6921V40.8345ZM22.8443 43.4541H29.4187V45.9754H30.4018V42.6793H22.8443V43.4541ZM23.0532 39.7767H30.5124V39.0265H24.024V37.9073H30.156V37.1571H24.024V36.1116H30.4509V35.3368H23.0532V39.7767Z" fill="#868686"/>
<path d="M36.374 36.7635V35.6689H35.4155V36.8004C35.4032 38.4976 34.2849 39.9489 32.6014 40.5393L33.1298 41.3264C34.4508 40.8283 35.4462 39.8136 35.9132 38.5038C36.3863 39.6537 37.3325 40.5454 38.5368 40.9943L39.0775 40.2441C37.4738 39.6968 36.3617 38.3255 36.374 36.7635ZM34.3833 43.9092C34.3771 45.2129 35.7719 45.9508 38.0452 45.9508C40.3125 45.9508 41.7072 45.2129 41.7072 43.9092C41.7072 42.5932 40.3125 41.8368 38.0452 41.843C35.7719 41.8368 34.3771 42.5932 34.3833 43.9092ZM35.3418 43.9092C35.3356 43.0913 36.3678 42.6055 38.0452 42.6055C39.7165 42.6055 40.7487 43.0913 40.7487 43.9092C40.7487 44.7025 39.7165 45.1821 38.0452 45.176C36.3678 45.1821 35.3356 44.7025 35.3418 43.9092ZM38.2664 38.1902H40.6996V41.5232H41.6703V35.0416H40.6996V37.3907H38.2664V38.1902Z" fill="#868686"/>
<path d="M35.228 14.3933C35.228 22.3426 28.7893 28.7867 20.8469 28.7867C12.9044 28.7867 6.46582 22.3426 6.46582 14.3933C6.46582 6.44412 12.9044 0 20.8469 0C28.7893 0 35.228 6.44412 35.228 14.3933Z" fill="#4579FF"/>
<path d="M193.419 14.3933C193.419 22.3426 186.981 28.7867 179.038 28.7867C171.096 28.7867 164.657 22.3426 164.657 14.3933C164.657 6.44412 171.096 0 179.038 0C186.981 0 193.419 6.44412 193.419 14.3933Z" fill="#4579FF"/>
<path d="M351.611 14.3933C351.611 22.3426 345.172 28.7867 337.23 28.7867C329.287 28.7867 322.849 22.3426 322.849 14.3933C322.849 6.44412 329.287 0 337.23 0C345.172 0 351.611 6.44412 351.611 14.3933Z" fill="#D3D3D3"/>
<path d="M176.347 17.9916H181.803V16.6844H178.549V16.6422L179.707 15.5142C181.277 14.0911 181.698 13.3795 181.698 12.5098C181.698 11.1868 180.613 10.2538 178.98 10.2538C177.374 10.2538 176.268 11.2078 176.273 12.6995H177.78C177.774 11.9669 178.243 11.5136 178.959 11.5188C179.66 11.5136 180.171 11.9352 180.171 12.6152C180.171 13.2214 179.786 13.643 179.075 14.323L176.337 16.8425L176.347 17.9916Z" fill="white"/>
<path d="M337.209 18.097C338.931 18.097 340.169 17.1588 340.158 15.8516C340.169 14.8975 339.552 14.2176 338.431 14.0805V14.0173C339.284 13.8644 339.879 13.2583 339.874 12.4044C339.879 11.1973 338.82 10.2538 337.23 10.2538C335.666 10.2538 334.486 11.1657 334.46 12.4781H335.977C336.003 11.8931 336.556 11.5136 337.23 11.5188C337.904 11.5136 338.352 11.9141 338.346 12.4992C338.352 13.1001 337.825 13.5113 337.072 13.5113H336.366V14.6814H337.072C337.967 14.6867 338.52 15.1242 338.515 15.7462C338.52 16.3629 337.978 16.7846 337.219 16.7898C336.482 16.7846 335.929 16.4103 335.903 15.841H334.302C334.333 17.1746 335.534 18.097 337.209 18.097Z" fill="white"/>
<path d="M22.2053 10.3593H20.7096L18.8242 11.561V12.9631L20.5727 11.8668H20.6148V17.9917H22.2053V10.3593Z" fill="white"/>
</svg>
