<svg width="14" height="22" viewBox="0 0 14 22" fill="none" xmlns="http://www.w3.org/2000/svg">
<path d="M4.58594 14.7656V15.0664H8.19531V14.7656C8.20898 12.8516 8.89258 11.9629 10.4375 11.0469C12.2285 9.9668 13.3906 8.54492 13.3906 6.28906C13.3906 2.91211 10.6973 0.929688 6.88281 0.929688C3.38281 0.929688 0.525391 2.77539 0.457031 6.61719H4.33984C4.39453 5.01758 5.58398 4.16992 6.85547 4.15625C8.18164 4.16992 9.24805 5.05859 9.23438 6.42578C9.24805 7.68359 8.33203 8.53125 7.15625 9.29688C5.51562 10.3223 4.59961 11.3613 4.58594 14.7656ZM4.17578 18.9492C4.14844 20.2207 5.1875 21.2461 6.47266 21.2461C7.68945 21.2461 8.74219 20.2207 8.74219 18.9492C8.74219 17.6914 7.68945 16.666 6.47266 16.6797C5.1875 16.666 4.14844 17.6914 4.17578 18.9492Z" fill="white"/>
</svg>
