<svg width="16" height="16" viewBox="0 0 16 16" fill="none" xmlns="http://www.w3.org/2000/svg">
<path d="M0.5 2.65234C0.5 1.54777 1.39543 0.652344 2.5 0.652344H13.5C14.6046 0.652344 15.5 1.54777 15.5 2.65234V9.36663C15.5 10.4712 14.6046 11.3666 13.5 11.3666H2.5C1.39543 11.3666 0.5 10.4712 0.5 9.36663V2.65234Z" fill="#4579FF"/>
<path d="M10.4648 5.57619C10.7982 5.76865 10.7982 6.24977 10.4648 6.44222L7.14341 8.35985C6.81008 8.5523 6.39341 8.31174 6.39341 7.92684L6.39341 4.09158C6.39341 3.70668 6.81008 3.46612 7.14341 3.65857L10.4648 5.57619Z" fill="white"/>
<rect x="0.5" y="12.6689" width="15" height="2.14286" rx="1.07143" fill="#4579FF"/>
<ellipse cx="4.38449" cy="13.7409" rx="1.60714" ry="1.60714" fill="#4579FF"/>
</svg>
